<svg width="20" height="21" viewBox="0 0 20 21" fill="none" xmlns="http://www.w3.org/2000/svg">
<g clip-path="url(#clip0_21796_394425)">
<path d="M17.6104 18.4987L1.5037 17.292C1.43271 17.2867 1.36341 17.2668 1.29975 17.2335C1.2361 17.2001 1.17934 17.154 1.13271 17.0976C1.08609 17.0413 1.05051 16.9759 1.02802 16.9051C1.00552 16.8344 0.996553 16.7597 1.00162 16.6853L1.81076 4.81893C1.8189 4.70262 1.861 4.59175 1.93135 4.50137C2.00169 4.411 2.09687 4.34549 2.20397 4.31374C2.31107 4.28199 2.4249 4.28553 2.53001 4.3239C2.63511 4.36226 2.72641 4.43358 2.79151 4.52818L6.07694 9.31277L10.0446 3.72882C10.0989 3.65236 10.1707 3.59147 10.2533 3.55178C10.336 3.51208 10.4269 3.49486 10.5176 3.50171C10.6083 3.50856 10.6959 3.53925 10.7723 3.59096C10.8487 3.64266 10.9114 3.71371 10.9547 3.79753L14.1246 9.91945L18.0707 5.67009C18.1482 5.58676 18.2482 5.53039 18.3573 5.50863C18.4664 5.48686 18.5792 5.50075 18.6805 5.54841C18.7818 5.59607 18.8666 5.67519 18.9236 5.77507C18.9805 5.87494 19.0068 5.99075 18.9988 6.10679L18.1891 17.9732C18.1841 18.0475 18.1651 18.12 18.1333 18.1867C18.1015 18.2533 18.0574 18.3128 18.0037 18.3616C17.95 18.4104 17.8876 18.4476 17.8201 18.4711C17.7526 18.4946 17.6814 18.504 17.6104 18.4987ZM2.12012 16.2003L17.1473 17.326L17.8127 7.57597L14.3879 11.264C14.3286 11.3277 14.2558 11.376 14.1754 11.4049C14.095 11.4338 14.0093 11.4425 13.9251 11.4303C13.8409 11.4181 13.7606 11.3854 13.6907 11.3348C13.6208 11.2842 13.5632 11.2171 13.5226 11.1389L10.4071 5.11914L6.50418 10.6131C6.45328 10.6845 6.38704 10.7424 6.31082 10.782C6.23461 10.8216 6.15056 10.8419 6.06549 10.8412C5.98041 10.8404 5.8967 10.8187 5.82113 10.7777C5.74555 10.7368 5.68024 10.6778 5.63048 10.6055L2.78499 6.46227L2.12012 16.2003Z" fill="#06262D"/>
</g>
<defs>
<clipPath id="clip0_21796_394425">
<rect width="18" height="15" fill="white" transform="translate(1 3.5)"/>
</clipPath>
</defs>
</svg>
