<svg width="40" height="40" viewBox="0 0 40 40" fill="none" xmlns="http://www.w3.org/2000/svg">
<path fill-rule="evenodd" clip-rule="evenodd" d="M20 40C31.0457 40 40 31.0457 40 20C40 8.9543 31.0457 0 20 0C8.9543 0 0 8.9543 0 20C0 31.0457 8.9543 40 20 40ZM15 6.25C15 5.55964 15.5596 5 16.25 5H23.75C24.4404 5 25 5.55964 25 6.25V15H33.75C34.4404 15 35 15.5596 35 16.25V23.75C35 24.4404 34.4404 25 33.75 25H25V33.75C25 34.4404 24.4404 35 23.75 35H16.25C15.5596 35 15 34.4404 15 33.75V25H6.25C5.55964 25 5 24.4404 5 23.75V16.25C5 15.5596 5.55964 15 6.25 15H15V6.25Z" fill="#292D32"/>
</svg>
