<svg width="20" height="20" viewBox="0 0 20 20" fill="none" xmlns="http://www.w3.org/2000/svg">
<g clip-path="url(#clip0_12390_15141)">
<path d="M18.3744 5.29904C17.9525 6.02975 17.029 6.25433 16.3253 5.84808C15.5946 5.4262 15.3544 4.52975 15.7763 3.79904C16.1825 3.09539 17.0946 2.82812 17.8253 3.25C18.529 3.65625 18.7806 4.59539 18.3744 5.29904ZM14.1669 6.58656C14.1326 6.45849 14.0129 6.3533 13.8848 6.38762L10.9957 6.70423C10.6428 6.75304 10.4355 7.17462 10.655 7.48181L11.9755 9.50715C12.1295 9.7404 12.1669 10.0507 12.0263 10.2942L10.0263 13.7583C9.80753 14.1372 9.35358 14.236 9.00176 14.0328C8.62287 13.8141 8.50849 13.3872 8.72724 13.0083L10.4929 9.95018L9.38776 8.30178C8.55216 7.06158 9.33872 5.38672 10.8473 5.21126L13.7364 4.89465C14.6516 4.80957 15.5092 5.44908 15.637 6.35278L15.931 8.21851L17.3654 9.04663C17.7172 9.24976 17.843 9.71933 17.6399 10.0712C17.4211 10.45 16.9672 10.5488 16.6154 10.3457L14.8833 9.34567C14.6668 9.22067 14.5243 9.03011 14.5098 8.80523L14.1669 6.58656ZM8.93001 4.03213L8.5986 1.85615C8.54559 1.57296 8.72891 1.31795 9.02354 1.30763L11.5483 0.997155C12.6342 0.866326 13.6115 1.61102 13.758 2.66985L13.867 3.41843C13.92 3.70162 13.7367 3.95663 13.4421 3.96695L9.47852 4.45707C9.21096 4.48301 8.95595 4.2997 8.93001 4.03213ZM6.68061 6.0532C7.00537 6.2407 7.13538 6.64052 6.97494 6.98091C7.16019 7.16003 7.30276 7.3506 7.42971 7.56823C7.78265 7.51941 8.14591 7.76522 8.23742 8.10673L8.37468 8.61899C8.46618 8.96049 8.2745 9.35501 7.94443 9.4892C7.94331 9.74114 7.91512 9.97746 7.84425 10.2252C8.15338 10.4398 8.21364 10.8354 8.02614 11.1602L7.77614 11.5932C7.57301 11.945 7.20026 12.0906 6.85987 11.9302C6.68075 12.1155 6.49018 12.258 6.27255 12.385C6.32137 12.7379 6.07556 13.1012 5.73405 13.1927L5.22179 13.3299C4.88029 13.4215 4.48578 13.2298 4.35158 12.8997C4.09964 12.8986 3.86332 12.8704 3.61556 12.7995C3.401 13.1086 3.00537 13.1689 2.65354 12.9658L2.22053 12.7158C1.89577 12.5283 1.75014 12.1555 1.91058 11.8151C1.72532 11.636 1.58275 11.4454 1.45581 11.2278C1.10286 11.2766 0.739603 11.0308 0.648097 10.6893L0.510837 10.1771C0.419331 9.83555 0.611017 9.44104 0.941086 9.30685C0.942207 9.0549 0.970392 8.81859 1.04127 8.57083C0.732131 8.35627 0.671875 7.96063 0.875 7.60881L1.125 7.1758C1.3125 6.85104 1.68526 6.70541 2.02564 6.86584C2.20477 6.68059 2.39533 6.53802 2.61296 6.41108C2.56414 6.05813 2.80996 5.69487 3.15146 5.60336L3.66372 5.4661C4.00523 5.3746 4.39974 5.56628 4.53393 5.89635C4.78588 5.89747 5.02219 5.92566 5.26995 5.99653C5.48451 5.6874 5.89577 5.60008 6.22053 5.78758L6.68061 6.0532ZM3.4641 11.1244C4.41132 11.6712 5.63365 11.3666 6.19615 10.3923C6.74303 9.44509 6.41132 8.20713 5.4641 7.66025C4.48982 7.09775 3.27893 7.44509 2.73205 8.3923C2.16955 9.36658 2.48982 10.5619 3.4641 11.1244ZM15.6623 11.9965C15.8768 11.6874 16.2881 11.6001 16.6399 11.8032L17.0729 12.0532C17.3977 12.2407 17.5277 12.6405 17.3672 12.9809C17.5525 13.16 17.6951 13.3506 17.822 13.5682C18.175 13.5194 18.5382 13.7652 18.6297 14.1067L18.767 14.619C18.8585 14.9605 18.6668 15.355 18.3367 15.4892C18.3356 15.7411 18.3074 15.9775 18.2366 16.2252C18.5457 16.4398 18.633 16.851 18.4455 17.1758L18.1955 17.6088C17.9924 17.9606 17.5926 18.0906 17.2522 17.9302C17.0731 18.1155 16.8825 18.258 16.6649 18.385C16.7137 18.7379 16.4679 19.1012 16.1264 19.1927L15.6141 19.3299C15.2726 19.4215 14.8781 19.2298 14.7439 18.8997C14.4919 18.8986 14.2556 18.8704 14.0079 18.7995C13.7933 19.1086 13.3977 19.1689 13.0729 18.9814L12.6399 18.7314C12.2881 18.5283 12.1424 18.1555 12.3029 17.8151C12.1176 17.636 11.9751 17.4454 11.8481 17.2278C11.4952 17.2766 11.1319 17.0308 11.0404 16.6893L10.9031 16.1771C10.8116 15.8356 11.0033 15.441 11.3334 15.3068C11.3345 15.0549 11.3627 14.8186 11.4336 14.5708C11.1244 14.3563 11.0642 13.9606 11.2673 13.6088L11.5173 13.1758C11.7048 12.851 12.0776 12.7054 12.4179 12.8658C12.5971 12.6806 12.7876 12.538 13.0053 12.4111C12.9564 12.0581 13.2023 11.6949 13.5438 11.6034L14.056 11.4661C14.3975 11.3746 14.792 11.5663 14.9262 11.8964C15.1782 11.8975 15.4145 11.9257 15.6623 11.9965ZM15.8564 13.6603C14.8821 13.0978 13.6712 13.4451 13.1244 14.3923C12.5619 15.3666 12.8821 16.5619 13.8564 17.1244C14.8036 17.6712 16.026 17.3666 16.5885 16.3923C17.1353 15.4451 16.8036 14.2071 15.8564 13.6603Z" fill="#292D32"/>
</g>
<defs>
<clipPath id="clip0_12390_15141">
<rect width="20" height="20" fill="white"/>
</clipPath>
</defs>
</svg>
