<svg width="20" height="20" viewBox="0 0 20 20" fill="none" xmlns="http://www.w3.org/2000/svg">
<path d="M9.60882 16.5586C9.48014 16.5584 9.35647 16.5087 9.26354 16.4197C9.17061 16.3307 9.11557 16.2093 9.10987 16.0807C9.10416 15.9522 9.14824 15.8263 9.23292 15.7295C9.3176 15.6326 9.43638 15.5721 9.56454 15.5605C14.8095 15.0862 16.8409 13.6197 16.993 12.4051C17.1105 11.4669 16.1059 10.4789 14.4336 9.88835C14.3715 9.86668 14.3142 9.83296 14.2652 9.78912C14.2161 9.74528 14.1762 9.69219 14.1477 9.63288C14.1192 9.57358 14.1027 9.50923 14.0991 9.44353C14.0955 9.37783 14.105 9.31207 14.1269 9.25002C14.1488 9.18798 14.1827 9.13086 14.2267 9.08196C14.2707 9.03305 14.324 8.99332 14.3834 8.96504C14.4428 8.93676 14.5072 8.92048 14.5729 8.91715C14.6386 8.91381 14.7043 8.92348 14.7663 8.9456C16.9331 9.71028 18.1665 11.0837 17.9852 12.5294C17.7218 14.6337 14.6852 16.1015 9.65439 16.5566C9.63909 16.5579 9.62412 16.5586 9.60882 16.5586Z" fill="#292D32"/>
<path d="M4.26005 8.61955C4.24047 8.6196 4.2209 8.61852 4.20145 8.6163C2.89705 8.46362 2.07505 7.84673 2.00276 6.96583C1.89176 5.61483 3.56631 4.23913 6.26859 3.46142C6.39602 3.42472 6.53282 3.44016 6.64887 3.50432C6.76493 3.56849 6.85075 3.67613 6.88744 3.80356C6.92414 3.931 6.9087 4.06779 6.84454 4.18385C6.78037 4.29991 6.67273 4.38572 6.5453 4.42242C3.87785 5.19001 2.95463 6.33982 2.99923 6.88379C3.02918 7.24807 3.53441 7.53128 4.31732 7.62279C4.44395 7.63763 4.56014 7.70028 4.64212 7.79793C4.7241 7.89558 4.76568 8.02086 4.75837 8.14815C4.75105 8.27545 4.69539 8.39514 4.60277 8.48276C4.51014 8.57038 4.38755 8.61931 4.26005 8.61955Z" fill="#292D32"/>
<path d="M6.76868 6.74151C6.93915 6.79609 7.12197 6.7989 7.29404 6.74957C7.46611 6.70024 7.61968 6.601 7.73534 6.46439C7.851 6.32778 7.92356 6.15994 7.94383 5.9821C7.9641 5.80425 7.93118 5.62439 7.84922 5.46526C7.76727 5.30613 7.63997 5.17487 7.48342 5.08809C7.32687 5.00131 7.14809 4.9629 6.96971 4.97772C6.79133 4.99254 6.62135 5.05992 6.48127 5.17135C6.34119 5.28278 6.23729 5.43325 6.18273 5.60373C6.10956 5.83231 6.13019 6.08059 6.24008 6.29396C6.34996 6.50733 6.5401 6.66832 6.76868 6.74151Z" fill="#292D32"/>
<path d="M16.0258 13.1544L14.8617 12.0396C14.7797 11.9256 14.6844 11.8218 14.5778 11.7304L14.3833 11.5813L13.8034 11.0259C13.7665 10.9911 13.7207 10.9673 13.6711 10.9572C13.6215 10.9471 13.57 10.9511 13.5225 10.9687C13.0326 10.6356 12.3683 10.1942 12.0148 10.0055C11.4906 9.72884 10.9472 9.49026 10.3888 9.29157C10.3657 9.20376 10.3302 9.11966 10.2835 9.04176L9.36945 7.56456L10.4795 7.76562C10.6415 7.79496 10.7965 7.8542 10.9368 7.94031L12.5185 8.91151C12.5968 8.95799 12.6874 8.97983 12.7783 8.97417C12.8692 8.96852 12.9564 8.93564 13.0284 8.87981L14.3644 10.7459L14.1906 10.8701C14.166 10.8876 14.1494 10.9143 14.1444 10.9441C14.1394 10.9739 14.1465 11.0045 14.1641 11.0291C14.1817 11.0537 14.2083 11.0703 14.2381 11.0753C14.268 11.0803 14.2985 11.0732 14.3231 11.0556L14.4969 10.9315L14.6066 11.0851C14.6142 11.0957 14.6237 11.1046 14.6347 11.1115C14.6457 11.1183 14.6579 11.123 14.6707 11.1251C14.6835 11.1272 14.6965 11.1268 14.7092 11.1239C14.7218 11.121 14.7337 11.1156 14.7443 11.1081L14.7708 11.0891C14.7813 11.0816 14.7903 11.072 14.7972 11.0611C14.804 11.0501 14.8086 11.0378 14.8108 11.025C14.8129 11.0123 14.8125 10.9992 14.8096 10.9866C14.8066 10.9739 14.8012 10.962 14.7937 10.9515L14.684 10.7979L14.8578 10.6738C14.87 10.6651 14.8803 10.654 14.8883 10.6413C14.8962 10.6286 14.9015 10.6145 14.904 10.5997C14.9065 10.5849 14.906 10.5698 14.9026 10.5552C14.8992 10.5406 14.893 10.5269 14.8843 10.5147C14.8756 10.5025 14.8646 10.4921 14.8519 10.4842C14.8392 10.4763 14.825 10.4709 14.8102 10.4685C14.7955 10.466 14.7803 10.4665 14.7658 10.4699C14.7512 10.4732 14.7374 10.4794 14.7252 10.4882L14.5514 10.6123L13.1914 8.7126C13.1967 8.70353 13.2059 8.69734 13.2106 8.68794C13.3175 8.46975 13.2864 8.26206 12.9131 8.00245L12.5227 7.77845C11.9669 7.42797 11.3858 7.11906 10.7844 6.85425C9.92834 6.50367 8.98656 6.41904 8.08174 6.6114C7.73337 6.75854 7.2598 7.02821 7.2598 7.02821C6.48929 7.47462 5.78949 8.03319 5.18339 8.68558C4.83177 9.10081 4.06945 10.3362 4.06945 10.3362L3.85423 10.7314C3.7658 10.8884 3.73929 11.0728 3.77992 11.2483L2.73157 12.0446L2.60257 11.8745C2.59352 11.8625 2.58222 11.8525 2.56929 11.8449C2.55637 11.8374 2.54209 11.8324 2.52725 11.8304C2.51242 11.8284 2.49733 11.8293 2.48285 11.833C2.46836 11.8368 2.45476 11.8434 2.44283 11.8525C2.4309 11.8615 2.42086 11.8728 2.4133 11.8858C2.40574 11.8987 2.40079 11.913 2.39875 11.9278C2.39671 11.9426 2.39761 11.9577 2.4014 11.9722C2.40519 11.9867 2.41179 12.0003 2.42084 12.0122L2.54984 12.1824L2.3994 12.2964C2.37855 12.3122 2.36483 12.3357 2.36127 12.3616C2.35771 12.3875 2.36459 12.4138 2.3804 12.4347L2.40009 12.4607C2.40791 12.471 2.4177 12.4797 2.42888 12.4862C2.44007 12.4928 2.45243 12.497 2.46527 12.4988C2.4781 12.5006 2.49116 12.4998 2.50369 12.4965C2.51623 12.4932 2.52799 12.4875 2.53832 12.4797L2.68876 12.3657L2.81776 12.5359C2.83602 12.56 2.86311 12.5758 2.89307 12.58C2.9079 12.582 2.92299 12.5811 2.93748 12.5773C2.95196 12.5735 2.96556 12.5669 2.97749 12.5579C2.98942 12.5488 2.99946 12.5375 3.00702 12.5246C3.01458 12.5117 3.01953 12.4974 3.02157 12.4826C3.02361 12.4677 3.02271 12.4526 3.01892 12.4382C3.01513 12.4237 3.00853 12.4101 2.99949 12.3981L2.87049 12.2279L3.91632 11.4335C3.93017 11.4468 3.94469 11.4594 3.95982 11.4712C4.0173 11.5071 4.08137 11.5311 4.14827 11.5419C4.21517 11.5526 4.28355 11.5499 4.34938 11.5339C4.41522 11.5179 4.47719 11.4888 4.53165 11.4485C4.58611 11.4082 4.63196 11.3574 4.66652 11.2991L5.58952 9.71764C5.68607 9.5522 5.80335 9.39977 5.93852 9.26404L6.90533 8.29304C6.92067 8.3188 8.16833 10.3507 8.16833 10.3507C8.26804 10.5117 8.41271 10.64 8.58449 10.7197C8.90687 11.0522 9.25601 11.3576 9.6284 11.6328C10.0682 11.9531 11.356 12.623 11.356 12.623L11.766 12.8087C12.1051 12.9281 12.2902 12.8894 12.4106 12.7635L13.5093 13.8622C13.5346 13.8876 13.5648 13.9077 13.5979 13.9215C13.6311 13.9352 13.6666 13.9423 13.7025 13.9423C13.7384 13.9423 13.7739 13.9352 13.8071 13.9215C13.8403 13.9077 13.8704 13.8876 13.8958 13.8622C13.9211 13.8369 13.9413 13.8067 13.955 13.7736C13.9687 13.7404 13.9758 13.7049 13.9758 13.669C13.9758 13.6331 13.9687 13.5976 13.955 13.5644C13.9413 13.5312 13.9211 13.5011 13.8958 13.4757L11.7198 11.2997C11.6944 11.2744 11.6643 11.2542 11.6311 11.2405C11.5979 11.2268 11.5624 11.2197 11.5265 11.2197C11.4906 11.2197 11.4551 11.2268 11.4219 11.2405C11.3888 11.2542 11.3586 11.2744 11.3333 11.2997C11.291 11.3436 11.2649 11.4006 11.2594 11.4613L10.3687 11.0255L9.76744 10.5086L9.96724 10.385C10.0342 10.3425 10.0958 10.2919 10.1504 10.2343L11.9641 11.0523L14.1399 12.64C14.2078 12.6895 14.2835 12.7274 14.3638 12.7521C14.4382 12.7754 14.5164 12.7841 14.5941 12.7778C14.6596 12.7714 14.7229 12.7509 14.7797 12.7178L15.6477 13.5491C15.7001 13.5989 15.7701 13.6258 15.8424 13.6241C15.9146 13.6223 15.9832 13.5921 16.0332 13.5399C16.0832 13.4877 16.1104 13.4178 16.109 13.3456C16.1077 13.2734 16.0777 13.2047 16.0258 13.1544Z" fill="#292D32"/>
</svg>
