<svg width="20" height="20" viewBox="0 0 20 20" fill="none" xmlns="http://www.w3.org/2000/svg">
<path d="M10 3C10 2.46875 10.4375 2 11 2C11.5312 2 12 2.46875 12 3C12 3.5625 11.5312 4 11 4C10.4375 4 10 3.5625 10 3ZM9 3.75C9 4.3125 8.53125 4.75 8 4.75C7.4375 4.75 7 4.3125 7 3.75C7 3.21875 7.4375 2.75 8 2.75C8.53125 2.75 9 3.21875 9 3.75ZM9.25 9V6.9375L2.875 8.25C2.46875 8.34375 2.09375 8.0625 2 7.65625C1.90625 7.25 2.1875 6.875 2.59375 6.78125L17.0938 3.78125C17.5 3.6875 17.875 3.96875 17.9688 4.375C18.0625 4.78125 17.7812 5.15625 17.375 5.25L10.75 6.625V9H15C16.0938 9 17 9.90625 17 11V16C17 17.125 16.0938 18 15 18H5C3.875 18 3 17.125 3 16V11C3 9.90625 3.875 9 5 9H9.25ZM15.5 11C15.5 10.75 15.25 10.5 15 10.5H13V13H15.5V11ZM15.5 14.5H4.5V16C4.5 16.2812 4.71875 16.5 5 16.5H15C15.25 16.5 15.5 16.2812 15.5 16V14.5ZM4.5 13H7V10.5H5C4.71875 10.5 4.5 10.75 4.5 11V13ZM8.5 10.5V13H11.5V10.5H8.5Z" fill="#292D32"/>
</svg>
