<svg width="20" height="20" viewBox="0 0 20 20" fill="none" xmlns="http://www.w3.org/2000/svg">
<path d="M5.46875 6C6.28125 6 6.96875 5.3125 6.96875 4.5C6.96875 3.65625 6.3125 3 5.46875 3C4.59375 3 3.96875 3.6875 3.96875 4.5C3.96875 5.34375 4.65625 6 5.46875 6ZM9.96875 2H8.96875V8.75L9.9375 8.5L9.96875 2ZM7.96875 13.9375C8.28125 13.8438 8.5 13.5312 8.5 13.2188C8.5 12.8125 8.15625 12.4688 7.75 12.4688C7.65625 12.4688 7.5625 12.4688 7.5 12.5L6.90625 12.6875C6.78125 12.75 6.65625 12.75 6.53125 12.75C6.0625 12.75 5.625 12.5 5.40625 12.0625L3.40625 7.90625C3.28125 7.625 3 7.46875 2.75 7.46875C2.34375 7.46875 2 7.78125 2 8.21875C2 8.34375 2 8.4375 2.0625 8.53125L4.03125 12.6875C4.5 13.6562 5.5 14.25 6.53125 14.25C6.9375 14.25 7.0625 14.2188 7.96875 13.9375ZM18 11.75C18 11.3438 17.6562 11.0312 17.25 11.0312C16.8125 11.0312 16.5 11.3438 16.5 11.75C16.5 12.1875 16.25 12.5938 15.8438 12.75L11.75 14.25V10C11.75 9.59375 11.4062 9.25 11 9.25C10.9688 9.25 10.9062 9.28125 10.8438 9.28125L7.875 10.0312L6.625 7.34375C6.46875 6.96875 6.125 6.75 5.71875 6.75C4.84375 6.75 4.6875 7.59375 4.6875 7.75C4.6875 7.875 4.71875 8.03125 4.78125 8.15625L6.28125 11.3125C6.40625 11.5938 6.6875 11.75 6.96875 11.75C7.03125 11.75 7.09375 11.7188 7.15625 11.7188L10.2188 10.9375V14.7812L5.46875 16.5312C5.15625 16.6562 4.96875 16.9375 4.96875 17.25C4.96875 17.6562 5.3125 18 5.71875 18C5.8125 18 5.90625 18 6 17.9688L16.3125 14.1562C17.8125 13.5938 18 12.1562 18 11.75Z" fill="#292D32"/>
</svg>
