<svg width="20" height="20" viewBox="0 0 20 20" fill="none" xmlns="http://www.w3.org/2000/svg">
<path d="M14.4977 5.99944C14.7944 5.99944 15.0843 5.91148 15.3309 5.74669C15.5776 5.5819 15.7698 5.34768 15.8833 5.07364C15.9968 4.7996 16.0265 4.49806 15.9686 4.20714C15.9108 3.91622 15.7679 3.649 15.5582 3.43926C15.3485 3.22952 15.0812 3.08668 14.7903 3.02882C14.4994 2.97095 14.1979 3.00065 13.9238 3.11416C13.6498 3.22767 13.4156 3.41989 13.2508 3.66652C13.086 3.91315 12.998 4.2031 12.998 4.49972C12.998 4.69667 13.0368 4.89168 13.1122 5.07364C13.1875 5.25559 13.298 5.42092 13.4373 5.56018C13.7185 5.84144 14.1 5.99944 14.4977 5.99944ZM3.09674 9.08324C2.92033 8.99214 2.715 8.97466 2.52573 9.03463C2.33645 9.09461 2.17866 9.22714 2.0869 9.40322C1.99514 9.57929 1.9769 9.78455 2.03617 9.97405C2.09544 10.1635 2.22739 10.3218 2.40312 10.4142L14.3853 16.635C14.8055 16.8532 15.2714 16.969 15.7449 16.9728C16.2184 16.9766 16.6861 16.8683 17.1098 16.6568L17.5847 16.4194C17.6727 16.3753 17.7513 16.3143 17.8158 16.2399C17.8802 16.1654 17.9294 16.079 17.9605 15.9856C17.9916 15.8921 18.004 15.7935 17.9969 15.6953C17.9898 15.597 17.9635 15.5012 17.9194 15.4131C17.8752 15.3251 17.8142 15.2466 17.7397 15.1821C17.6653 15.1177 17.5788 15.0686 17.4854 15.0375C17.3919 15.0065 17.2933 14.9942 17.195 15.0013C17.0968 15.0084 17.0009 15.0348 16.9129 15.079L16.438 15.3165C16.2262 15.4221 15.9925 15.4762 15.7558 15.4746C15.5191 15.473 15.2861 15.4156 15.0758 15.3071L13.7729 14.6322C13.9189 14.4543 13.9985 14.2312 13.9979 14.0011V11.4984C13.9978 11.1007 13.8398 10.7193 13.5585 10.438C13.2773 10.1568 12.8958 9.99878 12.4981 9.9987H11.4139L13.2792 8.13342C13.4542 7.95863 13.5733 7.73585 13.6216 7.49329C13.6699 7.25073 13.6452 6.9993 13.5505 6.77082C13.4558 6.54233 13.2955 6.34707 13.0898 6.20976C12.8841 6.07244 12.6423 5.99924 12.395 5.99942H6.99913C6.86757 5.999 6.73722 6.02456 6.61555 6.07462C6.49388 6.12468 6.38329 6.19826 6.29011 6.29114C6.19693 6.38402 6.123 6.49438 6.07256 6.61589C6.02211 6.7374 5.99615 6.86767 5.99615 6.99924C5.99615 7.1308 6.02211 7.26107 6.07256 7.38258C6.123 7.50409 6.19693 7.61445 6.29011 7.70733C6.38329 7.80021 6.49388 7.8738 6.61555 7.92385C6.73722 7.97391 6.86757 7.99947 6.99913 7.99905H9.62364L7.77399 9.25821C7.45242 9.47367 7.2275 9.80599 7.147 10.1846C7.06649 10.5632 7.13674 10.9583 7.34282 11.286L3.09674 9.08324ZM11.9982 11.9983V13.7043L8.70821 11.9983H11.9982Z" fill="#292D32"/>
<path d="M4.35423 12.4187L2.68122 11.5439C2.4347 11.415 2.13037 11.5104 2.00148 11.7569C1.87258 12.0034 1.96793 12.3078 2.21445 12.4366L3.88746 13.3114C4.13398 13.4403 4.43831 13.345 4.5672 13.0984C4.6961 12.8519 4.60075 12.5476 4.35423 12.4187Z" fill="#292D32"/>
<path d="M7.6613 14.1478L6.01325 13.2861C5.76674 13.1572 5.4624 13.2526 5.33351 13.4991C5.20461 13.7456 5.29997 14.0499 5.54648 14.1788L7.19453 15.0405C7.44104 15.1694 7.74538 15.0741 7.87427 14.8276C8.00317 14.5811 7.90781 14.2767 7.6613 14.1478Z" fill="#292D32"/>
<path d="M10.9119 15.8477L9.32429 15.0176C9.07777 14.8887 8.77344 14.984 8.64454 15.2305C8.51565 15.4771 8.611 15.7814 8.85752 15.9103L10.4451 16.7404C10.6916 16.8693 10.9959 16.7739 11.1248 16.5274C11.2537 16.2809 11.1584 15.9765 10.9119 15.8477Z" fill="#292D32"/>
<path d="M14.0709 17.4992L12.5382 16.6977C12.2916 16.5688 11.9873 16.6642 11.8584 16.9107C11.7295 17.1572 11.8249 17.4616 12.0714 17.5905L13.6041 18.3919C13.8506 18.5208 14.155 18.4254 14.2839 18.1789C14.4127 17.9324 14.3174 17.628 14.0709 17.4992Z" fill="#292D32"/>
</svg>
