<svg width="20" height="20" viewBox="0 0 20 20" fill="none" xmlns="http://www.w3.org/2000/svg">
<path fill-rule="evenodd" clip-rule="evenodd" d="M11.37 2.82002C11.37 3.26185 11.0118 3.62002 10.57 3.62002C10.1282 3.62002 9.77002 3.26185 9.77002 2.82002C9.77002 2.37819 10.1282 2.02002 10.57 2.02002C11.0118 2.02002 11.37 2.37819 11.37 2.82002ZM8.9501 3.34004C8.9501 3.78187 8.59193 4.14004 8.1501 4.14004C7.70827 4.14004 7.3501 3.78187 7.3501 3.34004C7.3501 2.89821 7.70827 2.54004 8.1501 2.54004C8.59193 2.54004 8.9501 2.89821 8.9501 3.34004ZM6.31006 8.77002C6.31006 8.5048 6.2047 8.25045 6.01717 8.06291C5.82963 7.87538 5.57528 7.77002 5.31006 7.77002C5.04484 7.77002 4.79049 7.87538 4.60295 8.06291C4.41542 8.25045 4.31006 8.5048 4.31006 8.77002C4.31006 9.03524 4.41542 9.28959 4.60295 9.47713C4.79049 9.66466 5.04484 9.77002 5.31006 9.77002C5.57528 9.77002 5.82963 9.66466 6.01717 9.47713C6.2047 9.28959 6.31006 9.03524 6.31006 8.77002ZM13.1248 13.2583C13.1872 13.2354 13.2537 13.2257 13.3201 13.2299C13.3875 13.2324 13.4538 13.2485 13.5149 13.2773C13.576 13.3061 13.6306 13.3469 13.6754 13.3974C13.7203 13.4479 13.7544 13.5069 13.7759 13.5709C13.7973 13.6349 13.8055 13.7026 13.8001 13.7699C13.7937 14.1268 13.6809 14.4736 13.4759 14.7658C13.271 15.0581 12.9834 15.2824 12.6501 15.4099L5.65008 17.9999C5.58712 18.0097 5.52304 18.0097 5.46008 17.9999C5.32482 17.9999 5.1951 17.9462 5.09945 17.8505C5.00381 17.7549 4.95008 17.6252 4.95008 17.4899C4.95237 17.3839 4.98583 17.2809 5.0463 17.1937C5.10676 17.1066 5.19155 17.0392 5.29008 16.9999L8.58008 15.7799V13.1599L6.49008 13.6899H6.36008C6.26134 13.6897 6.1647 13.6614 6.08147 13.6082C5.99824 13.5551 5.93185 13.4794 5.89008 13.3899L4.89008 11.2399C4.85204 11.1514 4.83166 11.0563 4.83008 10.9599C4.83528 10.7778 4.91133 10.6048 5.04204 10.4778C5.17276 10.3508 5.34784 10.2798 5.53008 10.2799C5.66151 10.2773 5.79073 10.3139 5.90119 10.3852C6.01166 10.4565 6.09832 10.5591 6.15008 10.6799L7.00008 12.5099L9.00008 11.9999H9.06008C9.19286 12.0024 9.31967 12.0555 9.4145 12.1485C9.50933 12.2415 9.56499 12.3672 9.57008 12.4999V15.3999L12.3601 14.3999C12.4942 14.3442 12.6087 14.2497 12.6889 14.1286C12.769 14.0075 12.8112 13.8652 12.8101 13.7199C12.8086 13.6534 12.8209 13.5874 12.8462 13.5259C12.8716 13.4644 12.9094 13.4089 12.9574 13.3628C13.0053 13.3168 13.0623 13.2812 13.1248 13.2583ZM7.0002 15.2099C7.10511 15.1767 7.19709 15.1117 7.26339 15.0239C7.32969 14.9361 7.36702 14.8299 7.3702 14.7199C7.36758 14.5837 7.31165 14.454 7.21441 14.3587C7.11717 14.2633 6.9864 14.2099 6.8502 14.2099C6.79401 14.1996 6.7364 14.1996 6.6802 14.2099L6.2802 14.3299C6.19626 14.3814 6.09851 14.4058 6.0002 14.3999C5.84213 14.401 5.68696 14.3575 5.55252 14.2744C5.41808 14.1912 5.30983 14.0718 5.2402 13.9299L3.8802 11.0999C3.84467 11.0121 3.78392 10.9367 3.70562 10.8833C3.62732 10.8299 3.53497 10.8009 3.4402 10.7999C3.37286 10.7985 3.30593 10.8108 3.24344 10.836C3.18095 10.8611 3.12418 10.8986 3.07655 10.9463C3.02892 10.9939 2.9914 11.0506 2.96625 11.1131C2.9411 11.1756 2.92884 11.2426 2.9302 11.3099C2.90933 11.3784 2.90933 11.4515 2.9302 11.5199L4.2702 14.3499C4.42847 14.6731 4.67483 14.9451 4.98091 15.1344C5.28699 15.3237 5.64032 15.4227 6.0002 15.4199C6.34392 15.4147 6.68342 15.3434 7.0002 15.2099ZM15.52 6.19H16.79C16.9466 6.18601 17.1025 6.21325 17.2484 6.27014C17.3944 6.32703 17.5276 6.41242 17.6403 6.52133C17.7529 6.63024 17.8427 6.76049 17.9045 6.90448C17.9662 7.04847 17.9987 7.20332 18 7.36V10.28C18.0001 10.4371 17.9685 10.5926 17.9072 10.7372C17.846 10.8818 17.7562 11.0126 17.6433 11.1218C17.5304 11.231 17.3966 11.3163 17.25 11.3727C17.1034 11.4291 16.947 11.4554 16.79 11.45H13.58C13.2697 11.45 12.9721 11.3267 12.7527 11.1073C12.5332 10.8879 12.41 10.5903 12.41 10.28V7.36C12.4126 7.0505 12.5367 6.75442 12.7555 6.53557C12.9744 6.31672 13.2705 6.19261 13.58 6.19H14.85V4.47L8.32998 5.86V11.51L7.66998 11.68V6L2.46998 7.05C2.368 7.071 2.26185 7.05141 2.17409 6.99539C2.08633 6.93937 2.02387 6.85134 1.99998 6.75C1.97927 6.64661 2.00023 6.53924 2.05828 6.45122C2.11633 6.3632 2.20679 6.30167 2.30998 6.28L17.53 3.08C17.632 3.059 17.7381 3.07859 17.8259 3.13461C17.9136 3.19063 17.9761 3.27866 18 3.38C18.0207 3.48338 17.9997 3.59076 17.9417 3.67878C17.8836 3.76679 17.7932 3.82833 17.69 3.85L15.52 4.32V6.19ZM13.3802 7.16019C13.3268 7.21358 13.2947 7.28463 13.29 7.36V8.53H14.75V7.07H13.58C13.5046 7.07472 13.4336 7.10679 13.3802 7.16019ZM17.0639 10.3957C17.0773 10.3587 17.0828 10.3193 17.08 10.28V9.41H13.29V10.28C13.2871 10.3193 13.2926 10.3587 13.306 10.3957C13.3195 10.4327 13.3406 10.4665 13.3679 10.4948C13.3953 10.5231 13.4283 10.5453 13.4649 10.56C13.5014 10.5747 13.5406 10.5815 13.58 10.58H16.79C16.8293 10.5815 16.8685 10.5747 16.9051 10.56C16.9416 10.5453 16.9747 10.5231 17.002 10.4948C17.0294 10.4665 17.0505 10.4327 17.0639 10.3957ZM15.62 8.53H17.08V7.36C17.083 7.32115 17.0775 7.28211 17.064 7.24556C17.0505 7.20902 17.0292 7.17583 17.0017 7.14828C16.9741 7.12072 16.941 7.09946 16.9044 7.08595C16.8679 7.07244 16.8288 7.067 16.79 7.07H15.62V8.53Z" fill="#2A2D32"/>
</svg>
