<svg width="20" height="20" viewBox="0 0 20 20" fill="none" xmlns="http://www.w3.org/2000/svg">
<path fill-rule="evenodd" clip-rule="evenodd" d="M6.16015 7.21C6.49537 7.20484 6.81541 7.06938 7.05247 6.83232C7.28953 6.59526 7.42499 6.27522 7.43015 5.94C7.4019 5.62134 7.25535 5.32481 7.01936 5.10881C6.78337 4.89282 6.47506 4.77303 6.15515 4.77303C5.83524 4.77303 5.52692 4.89282 5.29094 5.10881C5.05495 5.32481 4.9084 5.62134 4.88015 5.94C4.88014 6.10762 4.91332 6.27359 4.97777 6.42833C5.04222 6.58307 5.13666 6.72352 5.25565 6.84158C5.37464 6.95964 5.51583 7.05298 5.67107 7.11621C5.82631 7.17944 5.99253 7.21132 6.16015 7.21ZM10.0001 2H9.13015V9.55L10.0001 9.33V2ZM8.28015 14C8.40798 13.9557 8.51938 13.8736 8.59971 13.7648C8.68003 13.6559 8.72551 13.5252 8.73015 13.39C8.73015 13.2203 8.66272 13.0575 8.5427 12.9375C8.42267 12.8174 8.25989 12.75 8.09015 12.75C8.02117 12.7331 7.94912 12.7331 7.88015 12.75L7.38015 12.91C7.27476 12.9333 7.16554 12.9333 7.06015 12.91C6.85542 12.9192 6.65235 12.8695 6.47508 12.7667C6.29781 12.6639 6.15379 12.5123 6.06015 12.33L4.41015 8.83C4.36117 8.72182 4.28261 8.62968 4.18352 8.56421C4.08444 8.49875 3.96887 8.46262 3.85015 8.46C3.76621 8.45728 3.6826 8.47164 3.60438 8.50221C3.52616 8.53278 3.45497 8.57892 3.39512 8.63783C3.33527 8.69674 3.28802 8.7672 3.25622 8.84493C3.22442 8.92266 3.20875 9.00603 3.21015 9.09C3.19741 9.18427 3.21868 9.28 3.27015 9.36L4.94015 12.89C5.13469 13.2863 5.43649 13.6201 5.81124 13.8534C6.186 14.0867 6.61869 14.2103 7.06015 14.21C7.47638 14.2171 7.89024 14.1459 8.28015 14ZM16.7901 12.14L16.7898 12.1307C16.79 12.1175 16.7901 12.1044 16.7901 12.0912V12.14ZM16.7898 12.1307C16.7823 11.9688 16.7126 11.8159 16.5951 11.7039C16.4754 11.5897 16.3155 11.5273 16.1501 11.53C16.068 11.5259 15.9859 11.5387 15.9089 11.5676C15.832 11.5965 15.7618 11.641 15.7027 11.6982C15.6436 11.7554 15.5969 11.8241 15.5655 11.9001C15.5341 11.9761 15.5187 12.0578 15.5201 12.14C15.5221 12.3214 15.4699 12.4992 15.3701 12.6506C15.2703 12.8021 15.1276 12.9203 14.9601 12.99L11.4801 14.26V10.66C11.4802 10.492 11.4141 10.3307 11.2962 10.211C11.1784 10.0912 11.0181 10.0226 10.8501 10.02C10.8068 10.0222 10.7635 10.0222 10.7201 10.02L8.20015 10.65L7.14015 8.35C7.07633 8.19935 6.9689 8.07124 6.83168 7.98214C6.69447 7.89303 6.53373 7.84702 6.37015 7.85C6.14186 7.84987 5.92246 7.93845 5.75827 8.09705C5.59407 8.25565 5.49793 8.47185 5.49015 8.7C5.49794 8.8041 5.52507 8.90584 5.57015 9L6.84015 11.68C6.89227 11.7921 6.97572 11.8866 7.08042 11.9523C7.18511 12.0179 7.30658 12.0519 7.43015 12.05H7.59015L10.1901 11.39V14.65L6.19015 16.14C6.05036 16.1918 5.93303 16.2908 5.85843 16.4199C5.78383 16.5489 5.75663 16.7 5.78152 16.847C5.80641 16.994 5.88184 17.1277 5.99478 17.225C6.10772 17.3223 6.25109 17.3771 6.40015 17.38C6.47986 17.3896 6.56044 17.3896 6.64015 17.38L15.3901 14.14C15.8027 13.9789 16.1571 13.6971 16.4069 13.3313C16.6491 12.9768 16.782 12.5594 16.7898 12.1307ZM10.5468 3.60896C10.6633 3.35861 10.9607 3.25012 11.2111 3.36664C12.4902 3.96196 13.573 4.9096 14.3327 6.09846C15.0923 7.28732 15.4973 8.66812 15.5001 10.0789L15.5001 10.4899C15.5001 10.7661 15.2763 10.9899 15.0001 10.9899C14.724 10.9899 14.5001 10.7661 14.5001 10.4899V10.0805C14.4976 8.85994 14.1472 7.66541 13.49 6.63691C12.8328 5.60827 11.8958 4.78834 10.7891 4.27325C10.5388 4.15673 10.4303 3.85932 10.5468 3.60896ZM8.00012 2.65991L7.99809 2.65992C6.88173 2.66445 5.78086 2.92149 4.77794 3.41182C3.77501 3.90214 2.89601 4.61302 2.20679 5.49122C2.0363 5.70846 2.0742 6.02276 2.29143 6.19325C2.50866 6.36373 2.82296 6.32584 2.99345 6.10861C3.58954 5.34908 4.34975 4.73426 5.21715 4.3102C6.08425 3.88628 7.03599 3.66398 8.00115 3.65992H8.05012C8.32626 3.65992 8.55012 3.43606 8.55012 3.15992C8.55012 2.88377 8.32626 2.65992 8.05012 2.65992L8.00012 2.65991Z" fill="#2A2D32"/>
</svg>
