<svg width="20" height="20" viewBox="0 0 20 20" fill="none" xmlns="http://www.w3.org/2000/svg">
<path fill-rule="evenodd" clip-rule="evenodd" d="M8.28563 6.22874C8.04829 6.46794 7.72678 6.60479 7.38985 6.61C7.22223 6.61001 7.05626 6.57683 6.90152 6.51238C6.74678 6.44793 6.60633 6.35349 6.48827 6.2345C6.37021 6.11551 6.27687 5.97432 6.21364 5.81908C6.15041 5.66384 6.11853 5.49762 6.11985 5.33C6.11985 4.99318 6.25365 4.67015 6.49183 4.43197C6.73 4.1938 7.05303 4.06 7.38985 4.06C7.72668 4.06 8.04971 4.1938 8.28788 4.43197C8.52605 4.67015 8.65985 4.99318 8.65985 5.33C8.65728 5.66696 8.52296 5.98953 8.28563 6.22874ZM10.3599 2H11.2099L11.1799 8.73L10.3599 8.94V2ZM9.83488 13.1088C9.75393 13.2185 9.64006 13.2995 9.50985 13.34C9.10794 13.5112 8.67665 13.6029 8.23985 13.61C7.79808 13.6059 7.36609 13.4795 6.99185 13.2447C6.61761 13.0099 6.31577 12.676 6.11985 12.28L4.44985 8.75C4.42427 8.66522 4.42427 8.57478 4.44985 8.49C4.44852 8.40643 4.46384 8.32343 4.49491 8.24584C4.52597 8.16824 4.57217 8.09761 4.6308 8.03804C4.68943 7.97848 4.75933 7.93118 4.83643 7.89889C4.91352 7.86661 4.99627 7.84999 5.07985 7.85C5.19915 7.85016 5.31578 7.88529 5.41531 7.95106C5.51485 8.01682 5.59291 8.11032 5.63985 8.22L7.33985 11.72C7.42793 11.896 7.5637 12.0437 7.73168 12.1462C7.89965 12.2488 8.09306 12.3021 8.28985 12.3C8.39896 12.3086 8.50856 12.2915 8.60985 12.25L9.11985 12.09C9.18883 12.0731 9.26088 12.0731 9.32985 12.09C9.49704 12.0951 9.65581 12.1645 9.77315 12.2837C9.89049 12.4029 9.95736 12.5628 9.95985 12.73C9.95961 12.8664 9.91582 12.9991 9.83488 13.1088ZM17.9489 11.2435C17.9812 11.3182 17.9985 11.3986 17.9999 11.48C18.0089 11.9285 17.8819 12.3692 17.6356 12.744C17.3892 13.1189 17.0351 13.4104 16.6199 13.58L7.86985 16.81C7.79052 16.8247 7.70918 16.8247 7.62985 16.81C7.46185 16.8074 7.30162 16.7388 7.18375 16.619C7.06588 16.4993 6.99983 16.338 6.99985 16.17C7.00214 16.0383 7.0432 15.9102 7.11791 15.8017C7.19261 15.6932 7.29763 15.6091 7.41985 15.56L11.4199 14.08V10.82L8.81985 11.48H8.65985C8.53798 11.4799 8.41865 11.4451 8.31591 11.3796C8.21316 11.314 8.13127 11.2205 8.07985 11.11L6.80985 8.44C6.75969 8.32998 6.73246 8.21089 6.72985 8.09C6.73756 7.86357 6.83231 7.64883 6.99436 7.4905C7.15642 7.33217 7.3733 7.24244 7.59985 7.24C7.76487 7.23643 7.92705 7.28336 8.06466 7.3745C8.20227 7.46565 8.30876 7.59666 8.36985 7.75L9.42985 10L11.9299 9.36C11.9731 9.36448 12.0166 9.36448 12.0599 9.36C12.2288 9.36258 12.3901 9.43084 12.5095 9.5503C12.629 9.66977 12.6973 9.83107 12.6999 10V13.61L16.1699 12.33C16.3398 12.2638 16.4849 12.1465 16.5852 11.9942C16.6855 11.8419 16.7361 11.6622 16.7299 11.48C16.7298 11.3973 16.7465 11.3155 16.779 11.2394C16.8115 11.1634 16.8591 11.0948 16.919 11.0377C16.9788 10.9806 17.0497 10.9364 17.1272 10.9075C17.2047 10.8787 17.2873 10.8659 17.3699 10.87C17.4513 10.8687 17.5322 10.8834 17.6079 10.9133C17.6836 10.9433 17.7527 10.9879 17.8112 11.0445C17.8697 11.1011 17.9165 11.1688 17.9489 11.2435ZM2.14947 10.7851C2.19415 10.7332 2.24864 10.6907 2.30979 10.6599L3.85979 9.90992C3.98449 9.85186 4.1271 9.84557 4.25642 9.89243C4.38574 9.93928 4.49123 10.0355 4.54979 10.1599C4.60973 10.2836 4.61925 10.4258 4.57633 10.5564C4.53342 10.687 4.44143 10.7959 4.31979 10.8599L2.76979 11.5999C2.70889 11.6304 2.64251 11.6483 2.57457 11.6527C2.50662 11.6571 2.43848 11.6478 2.37417 11.6255C2.30986 11.6031 2.25069 11.5681 2.20013 11.5225C2.14957 11.4769 2.10865 11.4216 2.07979 11.3599C2.0488 11.2989 2.03016 11.2323 2.02495 11.1641C2.01973 11.0958 2.02805 11.0272 2.04942 10.9622C2.07079 10.8971 2.10479 10.8369 2.14947 10.7851ZM2.76017 12.3799C2.63748 12.4403 2.54351 12.5465 2.49859 12.6757C2.45367 12.8048 2.46142 12.9464 2.52017 13.0699C2.58073 13.1951 2.68805 13.2914 2.819 13.3382C2.94994 13.385 3.09402 13.3784 3.22017 13.3199L5.07017 12.4299C5.17847 12.3603 5.25772 12.2536 5.29312 12.1298C5.32852 12.006 5.31764 11.8736 5.26252 11.7572C5.2074 11.6409 5.11181 11.5485 4.9936 11.4975C4.8754 11.4465 4.74265 11.4402 4.62017 11.4799L2.76017 12.3799ZM2.9483 14.3957C2.99321 14.2666 3.08719 14.1603 3.20987 14.0999L5.36987 13.0999C5.49602 13.0415 5.6401 13.0349 5.77105 13.0817C5.90199 13.1284 6.00931 13.2248 6.06987 13.3499C6.12862 13.4734 6.13637 13.615 6.09145 13.7442C6.04653 13.8733 5.95256 13.9796 5.82987 14.0399L3.65987 15.0399C3.53483 15.0954 3.3932 15.1003 3.2646 15.0537C3.13601 15.0071 3.0304 14.9126 2.96987 14.7899C2.91113 14.6665 2.90338 14.5248 2.9483 14.3957Z" fill="#2A2D32"/>
</svg>
