<?xml version="1.0" encoding="utf-8"?>
<!-- Generator: Adobe Illustrator 26.0.1, SVG Export Plug-In . SVG Version: 6.00 Build 0)  -->
<svg version="1.1" id="Calque_1" xmlns="http://www.w3.org/2000/svg" xmlns:xlink="http://www.w3.org/1999/xlink" x="0px" y="0px"
	 viewBox="0 0 20 20" style="enable-background:new 0 0 20 20;" xml:space="preserve">
<g>
	<path d="M10.7,4.6L10,5.3L9.3,4.6C7.6,2.7,4.6,2.4,2.7,4.1C0.5,6,0.4,9.4,2.4,11.5l6.8,7.1c0.4,0.5,1.2,0.5,1.6,0l6.8-7.1
		c2-2.1,1.9-5.5-0.3-7.4C15.3,2.4,12.4,2.7,10.7,4.6z M15.2,8.8h-2.1l-0.1,0.3H15L14.4,10h-2l-0.2,0.3h2.1l-0.6,1h-2.1l-0.2,0.3h2.1
		l-0.6,1h-2.1c0,0,0.3,0.6,0.8,0.5c0.5,0,1-0.1,1-0.1s-0.2,0.5-0.5,0.5c0,0,0,0.1,0.1,0.1c0,0,0,0,0,0c0.1,0.1,0.3,0.2,0.4,0.2
		c0.1-0.1,0.4-0.3,0.8,0.2c0,0-0.4-0.2-0.6-0.1c-0.1,0.2,0.3,0.4,0.3,0.4s-0.5-0.3-0.6-0.1c0,0.2,0.1,0.4,0.3,0.4c0,0,0,0.2-0.4,0.2
		c-0.4,0-0.2-0.7-0.2-0.7s-0.3-0.3-0.4-0.4c0,0-0.2,1-0.6,0.9c0,0,0.1-0.8-0.1-1c0,0,0,0,0,0c-0.3-0.3-0.6-0.7-0.9-0.5
		c-0.3,0.2,0.3,1.1,0.8,1.4c0,0-0.6,0-0.6-0.1l0,0c0,0,0.3,0.6,0.6,0.7c0,0-0.4,0-0.6-0.1c0,0,0.4,0.6,0.6,0.7c0,0-0.6,0.1-0.7,0
		c0,0,0,1.3-0.4,1.3h0c-0.4,0-0.4-1.3-0.4-1.3c-0.1,0.1-0.7,0-0.7,0c0.3-0.1,0.6-0.7,0.6-0.7C9.3,15.3,9,15.3,9,15.3
		c0.2-0.1,0.6-0.7,0.6-0.7l0,0c0,0-0.6,0.1-0.6,0.1c0.5-0.3,1.1-1.1,0.8-1.4C9.4,13,9,13.4,8.7,13.7c0,0,0,0,0,0
		c-0.2,0.3-0.1,1-0.1,1C8.2,14.8,8,13.9,8,13.9c-0.1,0-0.4,0.4-0.4,0.4s0.2,0.7-0.2,0.7C7,15,7,14.8,7,14.8c0.2,0,0.4-0.2,0.3-0.4
		c0-0.2-0.5,0.1-0.6,0.1c0,0,0.4-0.3,0.3-0.4c-0.1-0.2-0.6,0.1-0.6,0.1c0.4-0.5,0.7-0.3,0.8-0.2c0.1,0.1,0.3-0.1,0.4-0.2
		c0,0,0,0,0,0c0.1-0.1,0.1-0.1,0.1-0.1c-0.3,0-0.5-0.5-0.5-0.5s0.5,0,1,0.1c0.5,0,0.8-0.5,0.8-0.5H7l-0.6-1h2.1l-0.2-0.3H6.3l-0.6-1
		h2.1L7.6,10h-2L5,9.1h2.1L6.9,8.8H4.8L4.4,7.9H8c0,0.5,0.5,1.6,1.2,1.4C9.9,9.1,9.6,8,9.3,7.9C8.9,7.9,9,8.2,9,8.2s-0.3,0-0.3-0.4
		c0-0.4,0.2-0.4,0.2-0.4h0.3c0-0.3,0.6-0.3,0.7-0.2c0.1,0.1,0.2,0,0.3,0c0.1,0,0.2,0,0.3,0c0.3,0,0.3-0.1,0.3-0.1L11,7
		c-0.8,0.9-0.5,2.3,0.2,2.3c0.7,0,0.9-1.4,0.9-1.4h3.6L15.2,8.8z"/>
	<path d="M9.7,7.6c0,0.2,0.3,0.1,0.3,0c0.1-0.1,0-0.1,0-0.1S9.7,7.4,9.7,7.6z"/>
</g>
</svg>
