<svg width="20" height="20" viewBox="0 0 20 20" fill="none" xmlns="http://www.w3.org/2000/svg">
<path d="M15.4062 4.9375L13.0625 2.59375C12.6875 2.21875 12.1875 2 11.6562 2H6C4.875 2 4 2.90625 4 4V16C4 17.125 4.875 18 6 18H14C15.0938 18 16 17.125 16 16V6.34375C16 5.8125 15.7812 5.3125 15.4062 4.9375ZM14.5 16C14.5 16.2812 14.25 16.5 14 16.5H6C5.71875 16.5 5.5 16.2812 5.5 16V4.03125C5.5 3.75 5.71875 3.53125 6 3.53125H11V6C11 6.5625 11.4375 7 12 7H14.4688V16H14.5ZM10.3125 10.9688C10.3125 10.875 10.3438 10.7812 10.375 10.6875C10.4375 10.5312 10.625 9.71875 10.625 9.0625C10.625 8.46875 10.1562 8 9.5625 8C9 8 8.53125 8.46875 8.53125 9.0625C8.53125 9.0625 8.53125 9.96875 8.9375 11C8.71875 11.625 8.46875 12.2188 8.15625 12.8125C7.5 13.125 6.9375 13.5 6.5 13.9375C6.3125 14.1562 6.21875 14.4062 6.21875 14.7188C6.21875 15.2812 6.6875 15.75 7.25 15.75C7.59375 15.75 7.90625 15.5938 8.125 15.3125C8.34375 15 8.6875 14.5 9.0625 13.8125C9.5625 13.5938 10.125 13.4375 10.75 13.3125C11.1562 13.5938 11.6562 13.8438 12.1875 14C12.3125 14.0625 12.4688 14.0938 12.625 14.0938C13.25 14.0938 13.75 13.5938 13.75 12.9375C13.75 12.3125 13.25 11.7812 12.5938 11.7812H12.5C12.4062 11.7812 11.8438 11.8125 11.0625 11.9375C10.75 11.6562 10.5 11.3438 10.3125 10.9688ZM7.4375 14.8438C7.3125 15 7.0625 14.9375 7.0625 14.6875C7.0625 14.625 7.0625 14.5625 7.09375 14.5312C7.375 14.25 7.71875 14 8.09375 13.7812C7.8125 14.3125 7.5625 14.6562 7.4375 14.8438ZM9.5625 8.84375C9.6875 8.84375 9.78125 8.9375 9.78125 9.0625C9.78125 9.53125 9.65625 10.1562 9.59375 10.375C9.375 9.65625 9.34375 9.125 9.34375 9.0625C9.34375 8.9375 9.4375 8.84375 9.5625 8.84375ZM9.0625 12.9062C9.25 12.4688 9.46875 12 9.65625 11.5C9.875 11.8438 10.125 12.1875 10.4375 12.5C10 12.5938 9.53125 12.7188 9.0625 12.9062ZM12.5 12.625H12.5938C12.7812 12.625 12.9062 12.75 12.9062 12.9688C12.9062 13.125 12.7812 13.25 12.625 13.25C12.5625 13.25 12.5 13.25 12.4375 13.2188C12.0625 13.0938 11.7188 12.9375 11.4375 12.75C12.0625 12.6562 12.5 12.625 12.5 12.625Z" fill="#292D32"/>
</svg>
