<svg width="20" height="20" viewBox="0 0 20 20" fill="none" xmlns="http://www.w3.org/2000/svg">
<g clip-path="url(#clip0_12156_14938)">
<path d="M8.42102 5.25968C8.47769 5.32406 8.55435 5.36753 8.6387 5.38309C8.72304 5.39865 8.81017 5.38541 8.88609 5.34549L11.859 4.1429L11.927 4.09533C12.004 4.04989 12.0639 3.98033 12.0974 3.89742C12.131 3.81451 12.1362 3.72287 12.1124 3.63667C12.0726 3.48861 12.0086 3.34816 11.9229 3.22103C11.6435 2.87496 11.2543 2.63467 10.8197 2.53993C10.3851 2.44518 9.93123 2.50167 9.53314 2.70003L8.16145 3.24836C8.13879 3.26421 8.10325 3.26166 8.05793 3.29336C7.98123 3.34331 7.92291 3.4169 7.89179 3.50297C7.86066 3.58904 7.85844 3.68291 7.88545 3.77036L8.36954 5.1861L8.42102 5.25968Z" fill="#292D32"/>
<path d="M15.5157 5.01566C15.8168 5.01875 16.112 4.93211 16.3636 4.76676C16.6153 4.60141 16.812 4.36487 16.9286 4.08728C17.0453 3.80969 17.0766 3.50365 17.0186 3.20819C16.9606 2.91272 16.816 2.64122 16.6031 2.42831C16.3901 2.2154 16.1186 2.07073 15.8232 2.01274C15.5277 1.95476 15.2217 1.9861 14.9441 2.10275C14.6665 2.21941 14.4299 2.4161 14.2646 2.66774C14.0993 2.91938 14.0126 3.21457 14.0157 3.51566C14.0158 3.91345 14.1739 4.29493 14.4551 4.57622C14.7364 4.8575 15.1179 5.01557 15.5157 5.01566Z" fill="#292D32"/>
<path d="M17.2343 15.9221C16.6405 15.9221 16.6405 16.5158 15.7968 16.5158C15.6216 16.5228 15.4481 16.4794 15.2968 16.3908L10.828 14.0783L12.3593 11.7658C12.5016 11.5648 12.578 11.3246 12.578 11.0783C12.5798 10.9098 12.5474 10.7427 12.483 10.5869C12.4186 10.4312 12.3233 10.2901 12.203 10.1721L10.3509 8.30847L8.05227 7.53223C8.08186 7.93924 8.25748 8.32186 8.54679 8.60967L11.0468 11.1097L9.48429 13.3909L3.07803 10.0784C2.97185 10.0249 2.8525 10.0032 2.73429 10.0159C2.63704 10.0152 2.54067 10.0343 2.45109 10.0722C2.3615 10.11 2.28058 10.1658 2.21329 10.236C2.146 10.3062 2.09376 10.3894 2.05975 10.4805C2.02575 10.5716 2.0107 10.6687 2.01553 10.7659C2.0127 10.899 2.04609 11.0303 2.11214 11.1459C2.17819 11.2615 2.27442 11.357 2.39053 11.4222L14.6405 17.7347C15.0091 17.9194 15.4157 18.0157 15.828 18.0159C17.0468 17.9847 17.9843 17.2034 17.9843 16.6722C17.9856 16.5733 17.9671 16.4752 17.9299 16.3836C17.8926 16.292 17.8375 16.2088 17.7675 16.1389C17.6976 16.069 17.6144 16.0138 17.5229 15.9766C17.4313 15.9393 17.3331 15.9208 17.2343 15.9221Z" fill="#292D32"/>
<path d="M15.8654 8.32819L14.1467 7.45319L13.5842 5.76569C13.4708 5.41703 13.2489 5.11375 12.9509 4.90011C12.653 4.68648 12.2945 4.57368 11.9279 4.57819C11.7029 4.57419 11.4795 4.61674 11.2717 4.70319L8.08343 5.9654L6.02584 5.2865L6.02169 5.25562C5.99457 5.03559 5.90865 4.82693 5.77297 4.6516C5.63729 4.47627 5.45688 4.34075 5.25069 4.25928L4.97484 4.99219L3.89227 4.92334L3.86127 4.92768C3.79927 4.93635 3.7685 4.94068 3.74604 5.0069C3.71967 5.04218 3.69304 5.07752 3.69721 5.1084C3.70102 5.13228 3.71013 5.15502 3.72385 5.17494C3.73758 5.19485 3.75559 5.21145 3.77655 5.22352L4.6811 5.82239L4.44062 6.58191C4.62848 6.62743 4.82239 6.64283 5.01508 6.62751C5.29812 6.59 5.55851 6.45278 5.74945 6.24051L10.152 7.70536L12.3342 6.73453L12.7717 8.04703C12.8202 8.20369 12.9008 8.34851 13.0084 8.47226C13.116 8.596 13.2483 8.69595 13.3967 8.76572L15.2092 9.67203C15.3124 9.73569 15.4317 9.76822 15.5529 9.76572C15.751 9.76303 15.9402 9.68315 16.0803 9.54307C16.2203 9.403 16.3002 9.21379 16.3029 9.01572C16.3041 8.87112 16.2634 8.72927 16.1858 8.60728C16.1082 8.48528 15.9969 8.38835 15.8654 8.32819Z" fill="#292D32"/>
</g>
<defs>
<clipPath id="clip0_12156_14938">
<rect width="20" height="20" fill="white"/>
</clipPath>
</defs>
</svg>
