<svg width="20" height="20" viewBox="0 0 20 20" fill="none" xmlns="http://www.w3.org/2000/svg">
<path d="M9.6561 5.65594C10.5184 5.65594 11.2175 4.95689 11.2175 4.09457C11.2175 3.23225 10.5184 2.5332 9.6561 2.5332C8.79378 2.5332 8.09473 3.23225 8.09473 4.09457C8.09473 4.95689 8.79378 5.65594 9.6561 5.65594Z" fill="#292D32"/>
<path d="M6.57248 11.5448C6.5194 11.5194 6.46184 11.5047 6.40309 11.5016C6.34433 11.4985 6.28554 11.507 6.23006 11.5265C6.17459 11.5461 6.12351 11.5765 6.07976 11.6158C6.036 11.6551 6.00042 11.7027 5.97505 11.7558C5.94711 11.8088 5.93029 11.8669 5.92564 11.9267C5.92099 11.9864 5.9286 12.0464 5.94801 12.1031C5.96741 12.1598 5.9982 12.2119 6.03848 12.2563C6.07876 12.3006 6.12768 12.3362 6.18224 12.361L7.54373 13.012V12.0092L6.57248 11.5448Z" fill="#292D32"/>
<path d="M7.7041 12.0859V13.0889L9.2661 13.8349V12.8329L7.7041 12.0859Z" fill="#292D32"/>
<path d="M16.157 15.2697C16.1161 15.1572 16.0327 15.0654 15.9247 15.0138C15.8175 14.9626 15.6944 14.956 15.5823 14.9956C15.4703 15.0351 15.3785 15.1176 15.3273 15.2248C15.3023 15.2797 15.2666 15.3289 15.2221 15.3697C15.1777 15.4104 15.1254 15.4418 15.0686 15.4618C15.0117 15.4819 14.9514 15.4903 14.8912 15.4865C14.8311 15.4827 14.7723 15.4668 14.7184 15.4398L11.6078 13.9525V7.93956C12.3295 7.58697 12.9423 7.04577 13.3814 6.3733L13.8254 5.69263C13.9375 5.5189 13.9761 5.30785 13.9328 5.10571C13.8896 4.90357 13.7679 4.72681 13.5946 4.61417C13.4213 4.50152 13.2103 4.46217 13.0081 4.50473C12.8058 4.54728 12.6286 4.66828 12.5153 4.84122L12.0713 5.51942C11.7257 6.05014 11.2148 6.45206 10.6176 6.66289C10.0204 6.87372 9.37029 6.88168 8.7681 6.68555C8.74617 6.67824 8.72419 6.66855 8.70227 6.66362C8.1159 6.45601 7.61258 6.06399 7.26773 5.54629L6.79197 4.83144C6.6768 4.65933 6.49798 4.54002 6.29484 4.49976C6.09171 4.4595 5.8809 4.50159 5.70879 4.61676C5.53668 4.73193 5.41738 4.91075 5.37712 5.11389C5.33685 5.31702 5.37894 5.52783 5.49411 5.69994L5.96985 6.41232C6.40468 7.06298 7.00285 7.58796 7.70445 7.93467V14.175L4.46361 12.6255C4.41053 12.6001 4.35298 12.5855 4.29423 12.5823C4.23548 12.5792 4.17669 12.5877 4.12122 12.6073C4.06575 12.6269 4.01468 12.6572 3.97093 12.6965C3.92718 12.7359 3.8916 12.7834 3.86624 12.8365C3.83827 12.8895 3.82143 12.9476 3.81676 13.0074C3.8121 13.0671 3.8197 13.1272 3.83911 13.1838C3.85851 13.2405 3.88931 13.2926 3.92961 13.337C3.9699 13.3813 4.01884 13.4169 4.07342 13.4417L12.2193 17.3365C12.5454 17.4899 12.9188 17.5086 13.2585 17.3886C13.5983 17.2687 13.8771 17.0197 14.0346 16.6956C14.0842 16.5867 14.089 16.4627 14.0481 16.3503C14.0072 16.2379 13.9238 16.146 13.8159 16.0944C13.7087 16.0432 13.5855 16.0366 13.4735 16.0762C13.3614 16.1158 13.2697 16.1982 13.2185 16.3054C13.1935 16.3603 13.1577 16.4096 13.1133 16.4503C13.0688 16.491 13.0166 16.5224 12.9597 16.5425C12.9029 16.5625 12.8426 16.5709 12.7824 16.5671C12.7222 16.5634 12.6634 16.5475 12.6095 16.5204L9.26582 14.9217V11.9016H10.0465V13.2059L9.44135 12.9166V13.9194L14.3282 16.2559C14.6542 16.4093 15.0276 16.428 15.3674 16.3081C15.7071 16.1881 15.986 15.9391 16.1434 15.615C16.193 15.5061 16.1979 15.3821 16.157 15.2697Z" fill="#292D32"/>
</svg>
