<svg width="20" height="20" viewBox="0 0 20 20" fill="none" xmlns="http://www.w3.org/2000/svg">
<path fill-rule="evenodd" clip-rule="evenodd" d="M16.9999 5.54993V7.99993C16.9999 8.17966 17.0056 8.34026 17.0107 8.48573C17.0424 9.37625 17.054 9.69945 15.6098 10.3699L3.30985 16.1099V14.8299L15.6498 9.08993C15.7533 9.02916 15.8396 8.94318 15.9008 8.84001C15.962 8.73683 15.9961 8.61983 15.9999 8.49993V6.35993L3.30985 12.2599V11.1599L6.83985 9.51993V6.34993L3.30985 7.99993V6.70993L13.1799 2.10993C13.3258 2.02326 13.4956 1.98527 13.6645 2.00145C13.8335 2.01762 13.993 2.08714 14.1198 2.19993L16.7098 4.70993C16.812 4.8234 16.8903 4.95622 16.9401 5.10051C16.9899 5.2448 17.0102 5.39763 16.9999 5.54993ZM7.88985 5.84993V8.99993L10.3499 7.87993V4.70993L7.88985 5.84993ZM11.3998 4.21993V7.38993L15.5398 5.36993L13.5398 3.21993C13.5186 3.20764 13.4944 3.20117 13.4698 3.20117C13.4453 3.20117 13.4211 3.20764 13.3998 3.21993L11.3998 4.21993ZM3.31402 16.8928L16.2108 10.879C16.5011 10.7436 16.8462 10.8692 16.9816 11.1595C17.1169 11.4498 16.9913 11.7949 16.701 11.9303L3.80426 17.9441C3.51395 18.0795 3.16886 17.9539 3.03348 17.6636C2.89811 17.3733 3.02371 17.0282 3.31402 16.8928Z" fill="black"/>
</svg>
