<svg width="20" height="20" viewBox="0 0 20 20" fill="none" xmlns="http://www.w3.org/2000/svg">
<path d="M8 4.80005C8.55228 4.80005 9 4.35233 9 3.80005C9 3.24776 8.55228 2.80005 8 2.80005C7.44772 2.80005 7 3.24776 7 3.80005C7 4.35233 7.44772 4.80005 8 4.80005Z" fill="#292D32"/>
<path d="M11 4C11.5523 4 12 3.55228 12 3C12 2.44772 11.5523 2 11 2C10.4477 2 10 2.44772 10 3C10 3.55228 10.4477 4 11 4Z" fill="#292D32"/>
<path d="M17.9998 4.3999C17.8998 3.9999 17.4999 3.6999 17.0999 3.7999L2.59985 6.7999C2.19985 6.8999 1.89985 7.1999 1.99985 7.6999C2.09985 8.1999 2.49985 8.3999 2.89985 8.2999L9.29985 6.9999V8.9999H7.29985C6.19985 8.9999 5.29985 9.8999 5.29985 10.9999V15.9999C5.29985 17.0999 6.19985 17.9999 7.29985 17.9999H12.7999C13.8999 17.9999 14.7999 17.0999 14.7999 15.9999V10.9999C14.7999 9.8999 13.8999 8.9999 12.7999 8.9999H10.7999V6.5999L17.3998 5.1999C17.7998 5.1999 18.0998 4.7999 17.9998 4.3999ZM6.79985 10.9999C6.79985 10.7999 6.99985 10.4999 7.29985 10.4999H9.29985V12.9999H6.79985V10.9999ZM10.7999 10.4999H12.7999C13.0999 10.4999 13.2999 10.6999 13.2999 10.9999V12.9999H10.7999V10.4999ZM13.2999 14.4999V15.9999C13.2999 16.2999 13.0999 16.4999 12.7999 16.4999H7.29985C6.99985 16.4999 6.79985 16.2999 6.79985 15.9999V14.4999H13.2999Z" fill="#292D32"/>
</svg>
