<svg width="20" height="20" viewBox="0 0 20 20" fill="none" xmlns="http://www.w3.org/2000/svg">
<path d="M11.5156 5C12.3281 5 13.0156 4.34375 13.0156 3.5C13.0156 2.6875 12.3281 2 11.5156 2C10.6719 2 10.0156 2.6875 10.0156 3.5C10.0156 4.34375 10.6719 5 11.5156 5ZM7.79688 11.9375L6.51562 17.0938C6.51562 17.1562 6.51562 17.2188 6.51562 17.25C6.51562 17.7188 6.89062 18 7.26562 18C7.57812 18 7.89062 17.7812 7.98438 17.4375L9.01562 13.25L8.17188 12.4062C8.01562 12.25 7.92188 12.0938 7.79688 11.9375ZM15.2656 7C14.8281 7 14.5156 7.34375 14.5156 7.75V8.25H13.3594L11.7969 6.46875C11.4844 6.1875 11.0781 6 10.6406 6C9.92188 6 9.29688 6.5 9.10938 7.21875L8.42188 10.0312C8.35938 10.1875 8.35938 10.3125 8.35938 10.4688C8.35938 10.9062 8.54688 11.375 8.85938 11.6875L11.1719 14C11.2344 14.0625 11.2344 14.125 11.2344 14.1875V17.25C11.2344 17.6875 11.5781 18 11.9844 18C12.4219 18 12.7344 17.6875 12.7344 17.25V14.1875C12.7344 13.7188 12.5469 13.2812 12.2031 12.9375L10.6719 11.375L11.4219 8.375L12.4531 9.5C12.5781 9.65625 12.7969 9.75 12.9844 9.75H14.4844V17.25C14.4844 17.6875 14.8281 18 15.2344 18C15.6094 18 16.0156 17.6875 16.0156 17.25V7.75C16.0156 7.34375 15.6719 7 15.2656 7ZM6.51562 11C6.73438 11 6.92188 10.8438 6.98438 10.625L8.29688 5.65625C8.29688 5.625 8.29688 5.59375 8.29688 5.5625C8.29688 5.34375 8.14062 5.125 7.92188 5.09375C7.70312 5.03125 7.48438 5 7.29688 5C6.14062 5 5.10938 5.75 4.79688 6.875L4.01562 9.9375C4.01562 9.96875 3.98438 10 3.98438 10.0625C3.98438 10.2812 4.14062 10.4688 4.39062 10.5312L6.39062 11C6.42188 11 6.45312 11 6.51562 11Z" fill="#292D32"/>
</svg>
