<svg width="6" height="21" viewBox="0 0 6 21" fill="none" xmlns="http://www.w3.org/2000/svg">
<g clip-path="url(#clip0_1725_6086)">
<path d="M2.85685 4.25C1.80488 4.25 0.952088 3.41053 0.952088 2.375C0.952088 1.33947 1.80488 0.5 2.85685 0.5C3.90882 0.5 4.76161 1.33947 4.76161 2.375C4.76161 3.41053 3.90882 4.25 2.85685 4.25Z" fill="#F50A42"/>
<path d="M2.53984 5.5H3.17476C3.84814 5.50062 4.49375 5.76421 4.96989 6.23292C5.44604 6.70162 5.71382 7.33715 5.71445 8V19.25C5.71445 19.5815 5.58066 19.8995 5.34252 20.1339C5.10438 20.3683 4.78139 20.5 4.44461 20.5C4.10782 20.5 3.78483 20.3683 3.54669 20.1339C3.30855 19.8995 3.17476 19.5815 3.17476 19.25V14.25H2.53984V19.25C2.53984 19.5815 2.40606 19.8995 2.16792 20.1339C1.92977 20.3683 1.60679 20.5 1.27 20.5C0.933219 20.5 0.61023 20.3683 0.372088 20.1339C0.133947 19.8995 0.000161171 19.5815 0.000161171 19.25V8C0.00079155 7.33715 0.268567 6.70162 0.744713 6.23292C1.22086 5.76421 1.86647 5.50062 2.53984 5.5Z" fill="#F50A42"/>
</g>
<defs>
<clipPath id="clip0_1725_6086">
<rect width="5.71429" height="20" fill="white" transform="matrix(-1 0 0 1 5.71428 0.5)"/>
</clipPath>
</defs>
</svg>
