<svg width="20" height="20" viewBox="0 0 20 20" fill="none" xmlns="http://www.w3.org/2000/svg">
<path d="M14 3.5C14 4.34375 13.3125 5 12.5 5C11.6562 5 11 4.34375 11 3.5C11 2.6875 11.6562 2 12.5 2C13.3125 2 14 2.6875 14 3.5ZM8 14C8 16.2188 6.1875 18 4 18C1.78125 18 0 16.2188 0 14C0 11.8125 1.78125 10 4 10C6.1875 10 8 11.8125 8 14ZM4 16.5C5.375 16.5 6.5 15.4062 6.5 14C6.5 12.625 5.375 11.5 4 11.5C2.59375 11.5 1.5 12.625 1.5 14C1.5 15.4062 2.59375 16.5 4 16.5ZM20 14C20 16.2188 18.1875 18 16 18C13.7812 18 12 16.2188 12 14C12 11.8125 13.7812 10 16 10C18.1875 10 20 11.8125 20 14ZM16 16.5C17.375 16.5 18.5 15.4062 18.5 14C18.5 12.625 17.375 11.5 16 11.5C14.5938 11.5 13.5 12.625 13.5 14C13.5 15.4062 14.5938 16.5 16 16.5ZM8.3125 8.40625C8.03125 8.625 8.0625 9.09375 8.40625 9.25L10.5625 10.3438C10.8125 10.4688 11 10.7188 11 11V15C11 15.4375 10.6562 15.75 10.25 15.75C9.8125 15.75 9.5 15.4375 9.5 15V11.4688L7.71875 10.5938C6.375 9.9375 6.21875 8.09375 7.4375 7.1875L9.78125 5.46875C10.5312 4.9375 11.5938 5.0625 12.1562 5.78125L13.3438 7.25H15C15.4062 7.25 15.75 7.59375 15.75 8C15.75 8.4375 15.4062 8.75 15 8.75H13C12.75 8.75 12.5312 8.65625 12.4062 8.46875L11 6.71875C10.9062 6.625 10.75 6.59375 10.6562 6.6875L8.3125 8.40625Z" fill="#292D32"/>
</svg>
