<svg width="20" height="20" viewBox="0 0 20 20" fill="none" xmlns="http://www.w3.org/2000/svg">
<path fill-rule="evenodd" clip-rule="evenodd" d="M10.1901 4.1C10.77 4.1 11.2401 3.6299 11.2401 3.05C11.2401 2.4701 10.77 2 10.1901 2C9.61024 2 9.14014 2.4701 9.14014 3.05C9.14014 3.6299 9.61024 4.1 10.1901 4.1ZM16.44 15.0601H3.51004C3.12017 15.0601 2.74627 15.2149 2.47059 15.4906C2.19491 15.7663 2.04004 16.1402 2.04004 16.5301C2.04004 16.9199 2.19491 17.2938 2.47059 17.5695C2.74627 17.8452 3.12017 18.0001 3.51004 18.0001H4.07004C4.20265 18.0001 4.32982 17.9474 4.42359 17.8536C4.51736 17.7598 4.57004 17.6327 4.57004 17.5001C4.57004 17.3674 4.51736 17.2403 4.42359 17.1465C4.32982 17.0527 4.20265 17.0001 4.07004 17.0001H3.51004C3.38539 17.0001 3.26584 16.9505 3.1777 16.8624C3.08956 16.7743 3.04004 16.6547 3.04004 16.5301C3.04004 16.4054 3.08956 16.2859 3.1777 16.1977C3.26584 16.1096 3.38539 16.0601 3.51004 16.0601H16.44C16.5647 16.0601 16.6842 16.1096 16.7724 16.1977C16.8605 16.2859 16.91 16.4054 16.91 16.5301C16.91 16.6547 16.8605 16.7743 16.7724 16.8624C16.6842 16.9505 16.5647 17.0001 16.44 17.0001H8.44004C8.30743 17.0001 8.18025 17.0527 8.08649 17.1465C7.99272 17.2403 7.94004 17.3674 7.94004 17.5001C7.94004 17.6327 7.99272 17.7598 8.08649 17.8536C8.18025 17.9474 8.30743 18.0001 8.44004 18.0001H16.44C16.8299 18.0001 17.2038 17.8452 17.4795 17.5695C17.7552 17.2938 17.91 16.9199 17.91 16.5301C17.91 16.1402 17.7552 15.7663 17.4795 15.4906C17.2038 15.2149 16.8299 15.0601 16.44 15.0601ZM7.1001 18C7.37624 18 7.6001 17.7761 7.6001 17.5C7.6001 17.2239 7.37624 17 7.1001 17C6.82396 17 6.6001 17.2239 6.6001 17.5C6.6001 17.7761 6.82396 18 7.1001 18ZM6.18018 17.5C6.18018 17.7761 5.95632 18 5.68018 18C5.40403 18 5.18018 17.7761 5.18018 17.5C5.18018 17.2239 5.40403 17 5.68018 17C5.95632 17 6.18018 17.2239 6.18018 17.5ZM15.3722 12.3923C15.4697 12.2948 15.6019 12.24 15.7398 12.24C15.8787 12.24 16.012 12.2944 16.1111 12.3917C16.2102 12.4889 16.2672 12.6212 16.2698 12.76C16.2672 13.1782 16.0999 13.5786 15.8042 13.8743C15.5084 14.1701 15.1081 14.3374 14.6898 14.34H4.20985C4.14032 14.3414 4.07124 14.3286 4.00685 14.3023C3.94245 14.2761 3.88411 14.2369 3.83541 14.1873C3.78671 14.1376 3.74867 14.0786 3.72364 14.0137C3.69861 13.9488 3.68711 13.8795 3.68985 13.81C3.68985 13.6721 3.74464 13.5398 3.84215 13.4423C3.93967 13.3448 4.07194 13.29 4.20985 13.29H9.12525L9.65996 10.7501L8.99996 9.22012C8.80516 9.14326 8.63364 9.01716 8.50218 8.85414C8.37071 8.69113 8.28381 8.49679 8.24996 8.29012C8.21486 8.1253 8.21486 7.95494 8.24996 7.79012L8.82996 5.58012V5.52012C8.89325 5.26386 9.0458 5.03854 9.26022 4.88459C9.47465 4.73065 9.73692 4.65815 9.99996 4.68012C10.2686 4.71026 10.5275 4.79828 10.7588 4.93812C10.9902 5.07795 11.1884 5.26628 11.34 5.49012L12.17 6.64012L13.22 6.44012C13.2897 6.42879 13.3609 6.4315 13.4296 6.44809C13.4982 6.46468 13.5628 6.49482 13.6197 6.53675C13.6765 6.57867 13.7244 6.63152 13.7605 6.69221C13.7966 6.75289 13.8202 6.82018 13.83 6.89012C13.8634 7.14104 13.764 7.33599 13.3092 7.46913L11.5096 13.29H14.6898C14.7598 13.2913 14.8294 13.2786 14.8943 13.2524C14.9592 13.2263 15.0182 13.1873 15.0676 13.1378C15.1171 13.0883 15.1561 13.0293 15.1823 12.9644C15.2084 12.8995 15.2212 12.83 15.2198 12.76C15.2198 12.6221 15.2746 12.4898 15.3722 12.3923ZM11.0705 13.29L12.8493 7.56138L12.22 7.65012C12.0626 7.67916 11.9001 7.66149 11.7526 7.5993C11.6051 7.5371 11.4791 7.4331 11.39 7.30012L10.56 6.15012L10.06 8.49012L10.72 10.4901C10.7351 10.5694 10.7351 10.6508 10.72 10.7301L10.1701 13.29H11.0705Z" fill="#2A2D32"/>
</svg>
