<svg width="20" height="20" viewBox="0 0 20 20" fill="none" xmlns="http://www.w3.org/2000/svg">
<path d="M18.3771 15.1519C17.667 14.9979 17.0226 14.6265 16.5334 14.0894C16.3836 13.9537 16.1886 13.8785 15.9865 13.8785C15.7843 13.8785 15.5894 13.9537 15.4396 14.0894C15.1199 14.4159 14.7382 14.6753 14.317 14.8524C13.8957 15.0295 13.4434 15.1208 12.9864 15.1208C12.5295 15.1208 12.0771 15.0295 11.6559 14.8524C11.2346 14.6753 10.853 14.4159 10.5333 14.0894C10.3835 13.9537 10.1886 13.8785 9.98642 13.8785C9.78428 13.8785 9.58936 13.9537 9.43956 14.0894C9.12274 14.4154 8.74382 14.6746 8.32517 14.8517C7.90653 15.0289 7.45664 15.1203 7.00206 15.1207C5.99646 15.1419 5.02184 14.7722 4.28327 14.0894C4.13348 13.9537 3.93856 13.8785 3.73642 13.8785C3.53428 13.8785 3.33936 13.9537 3.18956 14.0894C2.79523 14.6152 2.23278 14.9902 1.59577 15.1519C1.49852 15.1687 1.40564 15.205 1.3227 15.2585C1.23976 15.312 1.16845 15.3816 1.11304 15.4633C1.05762 15.545 1.01923 15.637 1.00016 15.7338C0.981098 15.8307 0.981743 15.9304 1.00206 16.0269C1.03999 16.2214 1.15327 16.3929 1.31719 16.5042C1.48111 16.6154 1.68237 16.6573 1.87706 16.6207C2.58706 16.4724 3.2449 16.138 3.78327 15.6519C4.73995 16.2793 5.85803 16.6158 7.00206 16.6207C8.08372 16.6196 9.13603 16.2688 10.0021 15.6207C10.8657 16.2601 11.9119 16.6051 12.9865 16.6051C14.061 16.6051 15.1072 16.2601 15.9709 15.6207C16.5804 16.1329 17.3127 16.4776 18.0959 16.6207H18.2521C18.4363 16.619 18.6134 16.5486 18.7485 16.4233C18.8836 16.298 18.9672 16.1268 18.9828 15.9432C18.9984 15.7596 18.945 15.5767 18.833 15.4304C18.721 15.2841 18.5584 15.1848 18.3771 15.1519Z" fill="#292D32"/>
<path d="M18.8604 12.0306C18.7483 11.8842 18.5857 11.7849 18.4044 11.7521C17.6944 11.598 17.05 11.2267 16.5607 10.6896C16.4109 10.5539 16.2159 10.4787 16.0138 10.4787C15.8116 10.4787 15.6167 10.5539 15.4669 10.6896C15.3335 10.8211 15.1895 10.9416 15.0364 11.0496L10.5138 3.97186C10.4579 3.89308 10.3846 3.82818 10.2996 3.78216C10.2146 3.73614 10.1202 3.71023 10.0237 3.70642C9.92374 3.70763 9.8255 3.73227 9.73684 3.77838C9.64818 3.82448 9.57159 3.89075 9.51322 3.97186L4.9586 11.0997C4.94767 11.1176 4.94383 11.1375 4.93394 11.1557C4.71105 11.0216 4.50222 10.8654 4.31059 10.6895C4.16079 10.5538 3.96588 10.4787 3.76374 10.4787C3.56161 10.4787 3.3667 10.5538 3.2169 10.6895C2.82257 11.2153 2.26012 11.5903 1.62309 11.7521C1.52584 11.7689 1.43297 11.8051 1.35003 11.8586C1.2671 11.9121 1.19579 11.9818 1.14038 12.0635C1.08497 12.1451 1.04658 12.2371 1.02751 12.334C1.00844 12.4308 1.00909 12.5305 1.0294 12.6271C1.06732 12.8215 1.1806 12.9931 1.34452 13.1043C1.50844 13.2155 1.7097 13.2575 1.9044 13.2209C2.61441 13.0725 3.27224 12.7382 3.81059 12.2521C4.76727 12.8795 5.88535 13.216 7.0294 13.2209C7.65808 13.2156 8.28013 13.0919 8.86295 12.8561C9.27828 12.6972 9.67056 12.4836 10.0294 12.2209C10.8931 12.8602 11.9392 13.2053 13.0138 13.2053C14.0884 13.2053 15.1345 12.8602 15.9982 12.2209C16.6077 12.7331 17.3401 13.0777 18.1232 13.2209H18.2794C18.4169 13.2196 18.5514 13.18 18.6677 13.1066C18.7839 13.0332 18.8775 12.9289 18.9378 12.8053C18.9981 12.6817 19.0229 12.5438 19.0092 12.4069C18.9955 12.2701 18.944 12.1398 18.8604 12.0306ZM10.0237 5.01349L11.4739 7.30096H10.0237C9.94469 7.30259 9.86708 7.32177 9.79644 7.35709C9.7258 7.39241 9.66389 7.443 9.61521 7.50519L9.04331 8.28131L8.43031 7.48474L10.0237 5.01349ZM7.87937 8.38336L8.63487 9.4046C8.68467 9.46407 8.74728 9.5115 8.81802 9.54332C8.88875 9.57515 8.96577 9.59056 9.04331 9.58838C9.11758 9.58831 9.19091 9.57179 9.25804 9.54002C9.32517 9.50824 9.38443 9.462 9.43156 9.4046L10.2687 8.28131H12.1072L14.1552 11.5108C13.5406 11.7343 12.8745 11.7757 12.2369 11.6301C11.5993 11.4844 11.0172 11.1578 10.5606 10.6896C10.4108 10.5539 10.2159 10.4787 10.0138 10.4787C9.81164 10.4787 9.61673 10.5539 9.46693 10.6896C9.15011 11.0156 8.77119 11.2748 8.35255 11.4519C7.9339 11.629 7.48401 11.7205 7.02943 11.7209C6.62967 11.724 6.23187 11.6649 5.85022 11.546L7.87937 8.38336Z" fill="#292D32"/>
</svg>
