<svg width="20" height="20" viewBox="0 0 20 20" fill="none" xmlns="http://www.w3.org/2000/svg">
<path d="M17.7298 14.31L10.7298 3.41C10.645 3.29296 10.5358 3.1957 10.4098 3.12492C10.2837 3.05414 10.1439 3.01152 9.99978 3C9.84539 3.0027 9.69372 3.04113 9.55665 3.11226C9.41959 3.1834 9.30087 3.2853 9.20978 3.41L2.20978 14.31C2.03694 14.5806 1.94186 14.8935 1.93497 15.2145C1.92808 15.5355 2.00964 15.8522 2.17072 16.13C2.33179 16.4078 2.56618 16.6358 2.84822 16.7893C3.13026 16.9427 3.44908 17.0156 3.76978 17H16.2298C16.5454 17.0043 16.8564 16.9232 17.1297 16.7652C17.403 16.6072 17.6285 16.3782 17.7822 16.1025C17.936 15.8267 18.0123 15.5146 18.003 15.199C17.9938 14.8834 17.8994 14.5763 17.7298 14.31ZM16.4498 15.38C16.4309 15.421 16.3993 15.4548 16.3596 15.4764C16.32 15.498 16.2745 15.5063 16.2298 15.5H3.76978C3.72509 15.5063 3.67955 15.498 3.63992 15.4764C3.6003 15.4548 3.56869 15.421 3.54978 15.38C3.51674 15.3448 3.49835 15.2983 3.49835 15.25C3.49835 15.2017 3.51674 15.1552 3.54978 15.12L7.68978 8.63H12.3298L16.4498 15.12C16.4828 15.1552 16.5012 15.2017 16.5012 15.25C16.5012 15.2983 16.4828 15.3448 16.4498 15.38Z" fill="#727982"/>
</svg>
