<svg width="20" height="20" viewBox="0 0 20 20" fill="none" xmlns="http://www.w3.org/2000/svg">
<path d="M11.5 5C12.3125 5 13 4.34375 13 3.5C13 2.6875 12.3125 2 11.5 2C10.6562 2 10 2.6875 10 3.5C10 4.34375 10.6562 5 11.5 5ZM18.25 15C17.8125 15 17.5 15.3438 17.5 15.75C17.5 16.1875 17.1562 16.5 16.75 16.5H14.5625L15.4375 10.3438C15.625 10.2188 15.75 10 15.75 9.78125C15.75 9.34375 15.4062 9 15 9L13.4688 9.03125L12.5625 7.21875C12.2188 6.5 11.5625 5.9375 10.8125 5.75L8.5625 5.09375C8.375 5.03125 8.15625 5.03125 7.9375 5.03125C7.375 5.03125 6.75 5.21875 6.28125 5.59375L5.03125 6.53125C4.78125 6.71875 4.75 6.96875 4.75 7.125C4.75 7.28125 4.78125 7.40625 4.875 7.53125L3.0625 16.5H1.75C1.3125 16.5 1 16.8438 1 17.25C1 17.6875 1.3125 18 1.75 18H16.75C17.9688 18 19 17 19 15.75C19 15.3438 18.6562 15 18.25 15ZM10.2812 16.5H6.78125L8.40625 13.125L7.84375 12.8125C7.59375 12.6562 7.34375 12.4375 7.15625 12.2188L5.125 16.5H4.09375L5.84375 7.78125C5.875 7.75 5.90625 7.75 5.9375 7.71875L7.1875 6.78125C7.40625 6.59375 7.6875 6.5 7.9375 6.5C8.03125 6.5 8.09375 6.53125 8.1875 6.53125L8.9375 6.75L7.65625 9.75C7.5625 9.96875 7.5 10.1875 7.5 10.4375C7.5 11.0312 7.8125 11.625 8.375 11.9375L11.1875 13.625L10.2812 16.5ZM13.5625 16.5H11.8438L12.6875 13.8438C12.7188 13.7188 12.75 13.6562 12.75 13.5C12.75 13.0625 12.5 12.6562 12.125 12.4062L10.0312 11.1875L11.2812 8L12.1875 9.8125C12.375 10.25 12.8125 10.5 13.2812 10.5H14.4062L13.5625 16.5Z" fill="#292D32"/>
</svg>
