<svg width="20" height="20" viewBox="0 0 20 20" fill="none" xmlns="http://www.w3.org/2000/svg">
<path fill-rule="evenodd" clip-rule="evenodd" d="M11.0969 4.53157C10.9399 4.66619 10.7363 4.73384 10.5299 4.71998C10.3256 4.70964 10.1333 4.6205 9.99345 4.4713C9.85358 4.3221 9.77701 4.12447 9.77986 3.91998C9.7837 3.81533 9.80831 3.71249 9.85225 3.61743C9.89619 3.52238 9.95859 3.43701 10.0358 3.36629C10.1131 3.29557 10.2036 3.24092 10.3021 3.2055C10.4007 3.17008 10.5053 3.1546 10.6099 3.15998C10.715 3.1651 10.818 3.19091 10.9131 3.23592C11.0082 3.28093 11.0935 3.34427 11.1641 3.4223C11.2347 3.50033 11.2892 3.59151 11.3245 3.69064C11.3598 3.78977 11.3752 3.89489 11.3699 3.99998C11.352 4.20607 11.254 4.39694 11.0969 4.53157ZM8.11007 5.23997C8.21834 5.2524 8.32802 5.24258 8.43236 5.2111C8.5367 5.17963 8.63351 5.12717 8.71684 5.05694C8.80018 4.98671 8.86829 4.90019 8.917 4.8027C8.9657 4.7052 8.99397 4.59878 9.00007 4.48997C9.00546 4.38488 8.99006 4.27976 8.95476 4.18063C8.91946 4.08151 8.86495 3.99032 8.79435 3.91229C8.72375 3.83426 8.63845 3.77092 8.54334 3.72591C8.44823 3.6809 8.34517 3.65509 8.24007 3.64997C8.13549 3.64459 8.03088 3.66007 7.93234 3.69549C7.83379 3.73091 7.74327 3.78556 7.66604 3.85628C7.5888 3.927 7.5264 4.01237 7.48246 4.10742C7.43852 4.20248 7.41391 4.30532 7.41007 4.40997C7.39606 4.61214 7.46129 4.81184 7.59195 4.96676C7.7226 5.12168 7.90843 5.21966 8.11007 5.23997ZM10.5399 9.44992C11.0314 9.44992 11.4299 9.05146 11.4299 8.55992C11.4299 8.06839 11.0314 7.66992 10.5399 7.66992C10.0484 7.66992 9.6499 8.06839 9.6499 8.55992C9.6499 9.05146 10.0484 9.44992 10.5399 9.44992ZM12 14.1801C12.089 14.1479 12.1661 14.0897 12.2214 14.0129C12.2767 13.9362 12.3076 13.8446 12.31 13.7501C12.3101 13.6324 12.264 13.5195 12.1818 13.4354C12.0995 13.3512 11.9876 13.3027 11.87 13.3001C11.8207 13.2889 11.7694 13.2889 11.72 13.3001L11.36 13.4101C11.2881 13.4301 11.212 13.4301 11.14 13.4101C11.0011 13.4115 10.8646 13.3738 10.7461 13.3013C10.6277 13.2288 10.532 13.1244 10.47 13.0001L9.31003 10.5901C9.27761 10.5125 9.22364 10.4459 9.15453 10.398C9.08541 10.3502 9.00404 10.3231 8.92003 10.3201C8.80068 10.3201 8.68622 10.3675 8.60183 10.4519C8.51744 10.5363 8.47003 10.6507 8.47003 10.7701C8.44944 10.8317 8.44944 10.8984 8.47003 10.9601L9.64003 13.4301C9.77749 13.7082 9.98971 13.9425 10.2529 14.1068C10.5161 14.271 10.8198 14.3587 11.13 14.3601C11.4284 14.3521 11.723 14.2911 12 14.1801ZM17.3832 12.476C17.4365 12.4561 17.4933 12.4472 17.5501 12.45C17.6651 12.4472 17.7767 12.4897 17.8608 12.5682C17.9449 12.6467 17.9949 12.755 18.0001 12.87C17.9983 13.1829 17.9017 13.4879 17.7233 13.7449C17.5448 14.0019 17.2927 14.1989 17.0001 14.31L10.8401 16.56H10.6701C10.566 16.5574 10.466 16.5187 10.3871 16.4506C10.3083 16.3825 10.2555 16.2892 10.2378 16.1866C10.2201 16.0839 10.2386 15.9783 10.2901 15.8877C10.3416 15.7972 10.4228 15.7273 10.5201 15.69L13.3501 14.69V12.4L11.5201 12.87H11.4101C11.3241 12.8703 11.2397 12.8461 11.167 12.8C11.0944 12.7539 11.0364 12.688 11.0001 12.61L10.1601 10.73C10.1203 10.6562 10.0997 10.5737 10.1001 10.49C10.1078 10.3308 10.1765 10.1807 10.292 10.0708C10.4074 9.96095 10.5607 9.89976 10.7201 9.89995C10.8346 9.89846 10.947 9.93091 11.0431 9.99319C11.1392 10.0555 11.2147 10.1448 11.2601 10.25L12.0001 11.85L13.7401 11.39H13.8301C13.9477 11.3899 14.0607 11.436 14.1448 11.5182C14.2289 11.6004 14.2775 11.7123 14.2801 11.83V14.36L16.7201 13.47C16.8375 13.4202 16.9373 13.3365 17.0068 13.2296C17.0763 13.1227 17.1123 12.9974 17.1101 12.87C17.11 12.8131 17.1215 12.7568 17.1439 12.7045C17.1662 12.6522 17.199 12.6049 17.2401 12.5657C17.2812 12.5264 17.3299 12.4959 17.3832 12.476ZM1.99982 7.90011C2.02371 8.00144 2.08617 8.08948 2.17393 8.14549C2.26169 8.20151 2.36784 8.2211 2.46982 8.20011L6.13982 7.42011V12.7801L6.71982 12.6301V7.29011L12.6198 6.00011V11.0501L13.1998 10.9001V5.90011L17.6698 4.90011C17.7661 4.88531 17.8533 4.83504 17.9144 4.75916C17.9755 4.68329 18.0059 4.58731 17.9998 4.49011C17.9759 4.38877 17.9135 4.30074 17.8257 4.24472C17.7379 4.1887 17.6318 4.16911 17.5298 4.19011L2.30982 7.39011C2.25912 7.39968 2.21083 7.41922 2.16774 7.44759C2.12464 7.47596 2.08761 7.5126 2.05877 7.55538C2.02994 7.59816 2.00988 7.64624 1.99976 7.69684C1.98964 7.74743 1.98966 7.79952 1.99982 7.85011V7.90011ZM5.26978 15.0001C5.31922 14.9896 5.37033 14.9896 5.41978 15.0001C5.51738 15.0133 5.60772 15.0589 5.67635 15.1296C5.74497 15.2002 5.7879 15.2919 5.79827 15.3898C5.80864 15.4878 5.78585 15.5863 5.73355 15.6698C5.68124 15.7533 5.60245 15.8167 5.50978 15.8501C5.24083 15.9661 4.95251 16.0305 4.65978 16.0401C4.3493 16.04 4.04509 15.9527 3.7817 15.7883C3.51832 15.6239 3.30631 15.389 3.16978 15.1101L1.99978 12.6401C1.97989 12.5783 1.97989 12.5119 1.99978 12.4501C1.99841 12.3906 2.00912 12.3315 2.03125 12.2763C2.05338 12.2211 2.08647 12.1709 2.12854 12.1289C2.1706 12.0868 2.22075 12.0537 2.27597 12.0316C2.33118 12.0095 2.39031 11.9987 2.44978 12.0001C2.53318 12.0054 2.61355 12.0334 2.68226 12.081C2.75098 12.1285 2.80543 12.1939 2.83978 12.2701L3.99978 14.7501C4.07077 14.8699 4.17412 14.9672 4.29794 15.0309C4.42177 15.0946 4.56105 15.122 4.69978 15.1101C4.77187 15.1292 4.84769 15.1292 4.91978 15.1101L5.26978 15.0001ZM4.07018 11.1401C4.56171 11.1401 4.96018 10.7416 4.96018 10.2501C4.96018 9.75857 4.56171 9.36011 4.07018 9.36011C3.57864 9.36011 3.18018 9.75857 3.18018 10.2501C3.18018 10.7416 3.57864 11.1401 4.07018 11.1401ZM7.2701 13.07H7.3601C7.47059 13.0823 7.57259 13.1351 7.64645 13.2182C7.7203 13.3013 7.76079 13.4088 7.7601 13.52V16.44C7.7601 16.554 7.7148 16.6634 7.63416 16.744C7.55352 16.8247 7.44415 16.87 7.3301 16.87C7.21512 16.87 7.10469 16.825 7.02246 16.7446C6.94023 16.6643 6.89272 16.5549 6.8901 16.44V14.08L5.0701 14.54H4.9601C4.87379 14.5416 4.7889 14.5179 4.716 14.4716C4.6431 14.4254 4.5854 14.3587 4.5501 14.28L3.6601 12.4C3.62032 12.3263 3.59968 12.2437 3.6001 12.16C3.6053 12.0017 3.67185 11.8516 3.78569 11.7415C3.89953 11.6314 4.05173 11.5699 4.2101 11.57C4.32518 11.5657 4.43877 11.597 4.5354 11.6597C4.63203 11.7223 4.707 11.8132 4.7501 11.92L5.5001 13.52L7.2701 13.07Z" fill="#2A2D32"/>
</svg>
