<svg width="20" height="20" viewBox="0 0 20 20" fill="none" xmlns="http://www.w3.org/2000/svg">
<path fill-rule="evenodd" clip-rule="evenodd" d="M8.4551 2.63306C8.65783 2.27185 9.115 2.14337 9.47621 2.3461C9.5301 2.37634 9.62696 2.42334 9.77571 2.49551C9.87066 2.54157 9.98675 2.5979 10.1263 2.66667C10.4591 2.83067 10.8787 3.04374 11.322 3.29614C12.1847 3.78728 13.2282 4.47676 13.8721 5.30697C14.1997 5.72947 14.4667 6.24277 14.5026 6.82787C14.5399 7.43652 14.3207 8.01693 13.87 8.53592C13.0212 9.51326 11.2824 10.3547 8.42087 11.0947C7.0042 11.461 5.94129 11.8305 5.17851 12.1888C4.39867 12.5552 4.00676 12.8761 3.84128 13.104C3.76609 13.2076 3.75312 13.2705 3.75067 13.2973C3.74848 13.321 3.75 13.3606 3.78618 13.4296C3.87348 13.5962 4.12195 13.852 4.65228 14.1484C5.6915 14.7292 7.43673 15.2609 9.63255 15.6447C11.8106 16.0253 14.3709 16.2501 17 16.2501C17.4142 16.2501 17.75 16.5859 17.75 17.0001C17.75 17.4143 17.4142 17.7501 17 17.7501C14.2906 17.7501 11.6436 17.5189 9.3743 17.1223C7.12274 16.7288 5.18043 16.1619 3.92048 15.4578C3.30122 15.1117 2.74719 14.6784 2.45765 14.1261C2.30541 13.8356 2.22492 13.5084 2.25697 13.1599C2.28874 12.8144 2.42624 12.4998 2.62756 12.2226C3.01512 11.6889 3.68046 11.2354 4.54066 10.8312C5.41792 10.4191 6.57782 10.0219 8.04533 9.64244C10.8827 8.90872 12.2143 8.15477 12.7375 7.55235C12.9727 7.28145 13.015 7.07588 13.0054 6.91962C12.9944 6.73982 12.9062 6.50928 12.6867 6.22619C12.2362 5.64522 11.4173 5.07647 10.5799 4.59969C10.1731 4.36812 9.78313 4.1698 9.46323 4.01216C9.37178 3.96709 9.28055 3.92277 9.19421 3.88082C9.00245 3.78766 8.83476 3.70619 8.74207 3.65417C8.38086 3.45144 8.25238 2.99428 8.4551 2.63306Z" fill="white"/>
</svg>
