<svg width="20" height="20" viewBox="0 0 20 20" fill="none" xmlns="http://www.w3.org/2000/svg">
<path d="M11.5 5C12.3125 5 13 4.34375 13 3.5C13 2.6875 12.3125 2 11.5 2C10.6562 2 10 2.6875 10 3.5C10 4.34375 10.6562 5 11.5 5ZM7.78125 11.9375L6.5 17.0938C6.5 17.1562 6.5 17.2188 6.5 17.25C6.5 17.7188 6.875 18 7.25 18C7.5625 18 7.875 17.7812 7.96875 17.4375L9 13.25L8.15625 12.4062C8 12.25 7.90625 12.0938 7.78125 11.9375ZM15.25 7C14.8125 7 14.5 7.34375 14.5 7.75V8.25H13.3438L11.7812 6.46875C11.4688 6.1875 11.0625 6 10.625 6C9.90625 6 9.28125 6.5 9.09375 7.21875L8.40625 10.0312C8.34375 10.1875 8.34375 10.3125 8.34375 10.4688C8.34375 10.9062 8.53125 11.375 8.84375 11.6875L11.1562 14C11.2188 14.0625 11.2188 14.125 11.2188 14.1875V17.25C11.2188 17.6875 11.5625 18 11.9688 18C12.4062 18 12.7188 17.6875 12.7188 17.25V14.1875C12.7188 13.7188 12.5312 13.2812 12.1875 12.9375L10.6562 11.375L11.4062 8.375L12.4375 9.5C12.5625 9.65625 12.7812 9.75 12.9688 9.75H14.4688V17.25C14.4688 17.6875 14.8125 18 15.2188 18C15.5938 18 16 17.6875 16 17.25V7.75C16 7.34375 15.6562 7 15.25 7ZM6.5 11C6.71875 11 6.90625 10.8438 6.96875 10.625L8.28125 5.65625C8.28125 5.625 8.28125 5.59375 8.28125 5.5625C8.28125 5.34375 8.125 5.125 7.90625 5.09375C7.6875 5.03125 7.46875 5 7.28125 5C6.125 5 5.09375 5.75 4.78125 6.875L4 9.9375C4 9.96875 3.96875 10 3.96875 10.0625C3.96875 10.2812 4.125 10.4688 4.375 10.5312L6.375 11C6.40625 11 6.4375 11 6.5 11Z" fill="#292D32"/>
</svg>
