<svg width="20" height="20" viewBox="0 0 20 20" fill="none" xmlns="http://www.w3.org/2000/svg">
<path d="M9.74985 4.51991C10.0766 4.4246 10.3525 4.204 10.5174 3.90617C10.6822 3.60833 10.7226 3.25742 10.6298 2.92991C10.5304 2.59709 10.3027 2.31741 9.99707 2.15238C9.6914 1.98736 9.33269 1.9505 8.99985 2.04991C8.83692 2.09704 8.68489 2.17585 8.55245 2.2818C8.42002 2.38776 8.30978 2.5188 8.22804 2.66741C8.1463 2.81602 8.09468 2.9793 8.07611 3.14789C8.05755 3.31647 8.07241 3.48707 8.11985 3.64991C8.16532 3.81683 8.24443 3.97271 8.3523 4.10797C8.46018 4.24324 8.59456 4.35503 8.74719 4.4365C8.89982 4.51796 9.06749 4.56738 9.23991 4.58173C9.41232 4.59607 9.58585 4.57503 9.74985 4.51991Z" fill="#2A2D32"/>
<path d="M17.8601 14.3099C17.8353 14.1411 17.7469 13.9881 17.6131 13.8822C17.4793 13.7763 17.3102 13.7254 17.1401 13.7399C17.0553 13.7485 16.973 13.7742 16.8984 13.8154C16.8238 13.8567 16.7583 13.9127 16.7059 13.98C16.6535 14.0473 16.6154 14.1246 16.5938 14.2071C16.5722 14.2896 16.5675 14.3756 16.5801 14.4599C16.5998 14.631 16.5509 14.8028 16.444 14.9378C16.3372 15.0728 16.1811 15.1599 16.0101 15.1799L10.8601 15.7999L11.1501 12.5899C11.1693 12.4942 11.1693 12.3957 11.1501 12.2999L10.0001 9.99995L10.1301 8.59995L11.5401 8.42995C11.6705 8.55505 11.8323 8.64249 12.0084 8.68299C12.1845 8.72349 12.3682 8.71552 12.5401 8.65995L13.4701 8.38995C13.679 8.3254 13.8802 8.23822 14.0701 8.12995L17.4701 7.71995C17.5044 7.71623 17.5375 7.70575 17.5677 7.68911C17.5978 7.67247 17.6244 7.65001 17.6458 7.62303C17.6672 7.59605 17.683 7.56509 17.6923 7.53194C17.7016 7.4988 17.7043 7.46413 17.7001 7.42995C17.6902 7.36262 17.6543 7.30187 17.6 7.26073C17.5458 7.2196 17.4776 7.20137 17.4101 7.20995L14.4101 7.55995C14.4019 7.46631 14.3731 7.37563 14.3258 7.29438C14.2785 7.21313 14.2139 7.14329 14.1366 7.08983C14.0592 7.03637 13.9711 7.0006 13.8784 6.98507C13.7857 6.96953 13.6907 6.97461 13.6001 6.99995L12.3401 7.38995L11.1601 6.09995C10.9349 5.84612 10.6574 5.64407 10.3467 5.5077C10.036 5.37133 9.69941 5.30386 9.36013 5.30995C9.03529 5.31999 8.72497 5.44688 8.48616 5.66732C8.24735 5.88776 8.09608 6.18695 8.06013 6.50995V6.57995L7.86013 8.27995L2.37013 8.93995C2.30206 8.94989 2.24036 8.98544 2.19762 9.03934C2.15487 9.09323 2.13431 9.16141 2.14013 9.22995V9.28995C2.15006 9.35728 2.18599 9.41803 2.24021 9.45916C2.29443 9.5003 2.36261 9.51853 2.43013 9.50995L7.78013 8.86995L7.72013 9.36995C7.67546 9.56745 7.67546 9.77244 7.72013 9.96995C7.79727 10.2164 7.93754 10.4383 8.127 10.6137C8.31646 10.7892 8.54852 10.912 8.80013 10.9699L9.80013 12.7399L9.59013 15.9999L3.21013 16.7599C3.04096 16.7824 2.88741 16.8705 2.78263 17.0052C2.67786 17.1399 2.63026 17.3104 2.65013 17.4799C2.65725 17.5654 2.68201 17.6484 2.72284 17.7237C2.76367 17.7991 2.81968 17.8652 2.88734 17.9178C2.955 17.9704 3.03284 18.0085 3.11593 18.0295C3.19903 18.0505 3.28558 18.0541 3.37013 18.0399L16.1701 16.5099C16.6816 16.433 17.1434 16.1608 17.4586 15.7506C17.7737 15.3404 17.9176 14.824 17.8601 14.3099ZM10.2901 7.04995L11.0701 7.89995L10.2001 7.99995L10.2901 7.04995Z" fill="#2A2D32"/>
</svg>
