<svg width="20" height="21" viewBox="0 0 20 21" fill="none" xmlns="http://www.w3.org/2000/svg">
<g clip-path="url(#clip0_21796_394414)">
<path d="M18.723 9.92445L15.3125 7.35349V5.86307C15.3127 5.75639 15.2935 5.65073 15.2562 5.55212C15.2188 5.45352 15.1639 5.3639 15.0947 5.28841C15.0255 5.21291 14.9433 5.15302 14.8528 5.11215C14.7623 5.07129 14.6653 5.05026 14.5673 5.05026C14.4694 5.05026 14.3723 5.07129 14.2818 5.11215C14.1914 5.15302 14.1091 5.21291 14.0399 5.28841C13.9707 5.3639 13.9159 5.45352 13.8785 5.55212C13.8411 5.65073 13.8219 5.75639 13.8221 5.86307V6.22996L10.366 3.6246C10.2585 3.54347 10.1308 3.5 10 3.5C9.8692 3.5 9.74151 3.54347 9.63401 3.6246L1.27698 9.92445C1.13677 10.0301 1.04087 10.1922 1.01037 10.3748C0.97987 10.5575 1.01727 10.7459 1.11434 10.8986C1.2114 11.0513 1.36019 11.1557 1.52797 11.1889C1.69574 11.2221 1.86876 11.1814 2.00897 11.0757L2.99852 10.3297C3.0764 10.6533 3.22448 10.9518 3.4303 11.2C3.10772 11.5817 2.92867 12.0814 2.92867 12.6C2.92867 13.1187 3.10772 13.6184 3.4303 14C3.10905 14.3825 2.9302 14.8816 2.92867 15.3999C2.92922 15.9567 3.13258 16.4906 3.49413 16.8843C3.85569 17.278 4.3459 17.4994 4.85721 17.5H7.42861C7.51303 17.5 7.59664 17.4819 7.67464 17.4468C7.75265 17.4116 7.82352 17.36 7.88322 17.295C7.94292 17.23 7.99027 17.1529 8.02257 17.0679C8.05487 16.983 8.07148 16.892 8.07146 16.8V11.9H11.9285V16.8C11.9285 16.892 11.9451 16.983 11.9774 17.0679C12.0097 17.1529 12.0571 17.23 12.1168 17.295C12.1765 17.36 12.2474 17.4116 12.3254 17.4468C12.4034 17.4819 12.487 17.5 12.5714 17.5H15.1428C15.6541 17.4994 16.1443 17.278 16.5059 16.8843C16.8674 16.4906 17.0708 15.9568 17.0713 15.4001C17.0698 14.8817 16.891 14.3825 16.5697 14C16.8923 13.6184 17.0713 13.1187 17.0713 12.6C17.0713 12.0814 16.8923 11.5817 16.5697 11.2C16.7755 10.9518 16.9236 10.6533 17.0015 10.3297L17.991 11.0757C18.0605 11.128 18.1387 11.165 18.2212 11.1844C18.3037 11.2038 18.389 11.2053 18.472 11.1889C18.5551 11.1724 18.6344 11.1383 18.7054 11.0885C18.7763 11.0387 18.8376 10.9742 18.8857 10.8986C18.9337 10.823 18.9676 10.7378 18.9855 10.648C19.0033 10.5581 19.0047 10.4653 18.9896 10.3748C18.9745 10.2844 18.9432 10.198 18.8975 10.1208C18.8517 10.0435 18.7924 9.97678 18.723 9.92445ZM10 5.05163L13.5134 7.70013H6.48662L10 5.05163ZM6.78576 15.4001V16.1H4.85721C4.68677 16.0999 4.52336 16.026 4.40284 15.8948C4.28232 15.7636 4.21453 15.5857 4.21436 15.4001C4.21453 15.2145 4.28232 15.0364 4.40284 14.9052C4.52336 14.774 4.68677 14.7001 4.85721 14.7H6.78576V15.4001ZM6.78576 13.3H4.85721C4.68672 13.3 4.52321 13.2263 4.40265 13.095C4.28209 12.9637 4.21436 12.7857 4.21436 12.6C4.21436 12.4144 4.28209 12.2363 4.40265 12.1051C4.52321 11.9738 4.68672 11.9 4.85721 11.9H6.78576V13.3ZM15.7856 15.4001C15.7855 15.5857 15.7177 15.7636 15.5972 15.8948C15.4766 16.026 15.3132 16.0999 15.1428 16.1H13.2142V14.7H15.1428C15.3132 14.7001 15.4766 14.774 15.5972 14.9052C15.7177 15.0364 15.7855 15.2145 15.7856 15.4001ZM15.1428 13.3H13.2142V11.9H15.1428C15.3133 11.9 15.4768 11.9738 15.5973 12.1051C15.7179 12.2363 15.7856 12.4144 15.7856 12.6C15.7856 12.7857 15.7179 12.9637 15.5973 13.095C15.4768 13.2263 15.3133 13.3 15.1428 13.3ZM15.1428 10.5001H4.85721C4.68672 10.5001 4.52321 10.4263 4.40265 10.295C4.28209 10.1638 4.21436 9.98573 4.21436 9.80009C4.21436 9.61444 4.28209 9.4364 4.40265 9.30512C4.52321 9.17385 4.68672 9.1001 4.85721 9.1001H15.1428C15.3133 9.1001 15.4768 9.17385 15.5973 9.30512C15.7179 9.4364 15.7856 9.61444 15.7856 9.80009C15.7856 9.98573 15.7179 10.1638 15.5973 10.295C15.4768 10.4263 15.3133 10.5001 15.1428 10.5001Z" fill="black"/>
</g>
<defs>
<clipPath id="clip0_21796_394414">
<rect width="18" height="14" fill="white" transform="translate(1 3.5)"/>
</clipPath>
</defs>
</svg>
