<svg width="20" height="20" viewBox="0 0 20 20" fill="none" xmlns="http://www.w3.org/2000/svg">
<path d="M18 15.6875C18 15.25 17.6562 14.9375 17.25 14.9375C16.6562 14.9375 16.6562 15.5312 15.7812 15.5312C15.625 15.5312 15.4375 15.5 15.3125 15.4062L13.7188 14.5938C13.875 14.4688 14 14.25 14 14.0312V11.5312C14 10.8125 13.4375 10.2812 12.75 10.2812H10.5L12.625 8.15625C12.8438 7.90625 13 7.59375 13 7.28125C13 6.59375 12.4375 6.03125 11.75 6.03125H6.71875C6.28125 6.03125 5.96875 6.34375 5.96875 6.78125C5.96875 7.1875 6.3125 7.5 6.71875 7.5H10.0625L6.9375 10.1875C6.75 10.3438 6.65625 10.5625 6.65625 10.7812C6.65625 10.9375 6.6875 10.9062 6.71875 11L3.0625 9.09375C2.96875 9.03125 2.84375 9 2.71875 9C2.28125 9 2 9.34375 2 9.75C2 10 2.125 10.2812 2.375 10.4062L14.625 16.7188C15 16.9062 15.4062 17 15.7812 17C17.0312 17 18 16.2188 18 15.6875ZM12.5 13.9688L8.25 11.7812H12.5V13.9688ZM14.5 6C15.3125 6 16 5.34375 16 4.5C16 3.6875 15.3125 3 14.5 3C13.6562 3 12.9688 3.6875 12.9688 4.5C12.9688 5.34375 13.6562 6 14.5 6Z" fill="#292D32"/>
</svg>
