<svg width="20" height="20" viewBox="0 0 20 20" fill="none" xmlns="http://www.w3.org/2000/svg">
<path d="M5.79985 11.7999C5.99985 11.9999 6.29985 11.9999 6.39985 11.8999C6.49985 11.7999 6.59985 11.4999 6.39985 11.2999L4.69984 9.2999C4.49984 9.0999 4.29985 9.0999 4.09985 9.2999C3.89985 9.4999 3.99985 9.6999 4.09985 9.7999L5.79985 11.7999Z" fill="#292D33"/>
<path d="M4.2 18C4.3 18 4.4 18 4.5 18L14.8 14.2C16.3 13.6 16.5 12.2 16.5 11.8C16.5 11.4 16.2 11 15.8 11C15.4 11 15 11.3 15 11.7C15 12.1 14.8 12.5 14.3 12.7L10.2 14.2V10.1C10.2 9.59995 9.9 9.29995 9.4 9.19995L7.5 8.59995L7.3 5.79995H10L8 7.49995C7.9 7.69995 7.8 7.99995 8 8.19995C8.2 8.39995 8.5 8.39995 8.7 8.19995L14.9 2.79995C15.1 2.59995 15.1 2.29995 14.9 2.09995C14.7 1.89995 14.4 1.89995 14.2 2.09995L11.1 4.79995H6.2C5.5 4.79995 5.2 5.39995 5.2 5.89995C5.2 5.89995 5.7 9.29995 5.7 9.39995C5.8 9.69995 6 9.89995 6.2 9.99995L8.7 10.9V14.7L4 16.5C3.7 16.6 3.5 16.9 3.5 17.2C3.5 17.7 3.8 18 4.2 18Z" fill="#292D33"/>
<path d="M6.0998 4.6C6.7998 4.6 7.3998 4 7.3998 3.3C7.3998 2.6 6.7998 2 6.0998 2C5.2998 2 4.7998 2.6 4.7998 3.3C4.7998 4 5.3998 4.6 6.0998 4.6Z" fill="#292D33"/>
</svg>
