<svg width="20" height="20" viewBox="0 0 20 20" fill="none" xmlns="http://www.w3.org/2000/svg">
<path d="M17.3932 12.2287C17.2947 12.1414 17.1658 12.0964 17.0344 12.1032C16.9039 12.11 16.7814 12.1683 16.6939 12.2654C16.6063 12.3624 16.5609 12.4903 16.5677 12.6208C16.5724 12.687 16.5637 12.7534 16.5421 12.8161C16.5205 12.8788 16.4865 12.9365 16.442 12.9858C16.3976 13.035 16.3437 13.0748 16.2835 13.1027C16.2234 13.1306 16.1582 13.1461 16.0919 13.1482L12.6237 13.3271L15.0239 11.8035C15.3572 11.589 15.5926 11.2518 15.679 10.8649C15.7654 10.4781 15.6959 10.0728 15.4856 9.73685C15.413 9.62707 15.3002 9.55017 15.1715 9.52269C15.0428 9.49522 14.9085 9.51935 14.7974 9.58992C14.6871 9.65999 14.6091 9.771 14.5806 9.89855C14.5521 10.0261 14.5754 10.1597 14.6454 10.2701C14.682 10.3254 14.7071 10.3875 14.7191 10.4528C14.7312 10.518 14.7299 10.585 14.7155 10.6497C14.701 10.7144 14.6736 10.7756 14.635 10.8295C14.5963 10.8834 14.5472 10.9289 14.4905 10.9634L14.3474 11.0543L14.2265 10.9319L14.831 5.33447L15.1328 5.36709C15.154 5.36937 15.1754 5.36747 15.1958 5.36148C15.2163 5.35549 15.2353 5.34554 15.2519 5.33219C15.2685 5.31885 15.2823 5.30236 15.2925 5.28369C15.3027 5.26501 15.3091 5.2445 15.3114 5.22334C15.3137 5.20218 15.3118 5.18077 15.3058 5.16034C15.2998 5.13992 15.2899 5.12087 15.2765 5.10429C15.2632 5.08771 15.2467 5.07392 15.228 5.06371C15.2093 5.05349 15.1888 5.04706 15.1677 5.04478L14.8659 5.01216L14.8947 4.74537C14.8987 4.70839 14.8878 4.67133 14.8645 4.64236C14.8412 4.61339 14.8073 4.59486 14.7703 4.59087L14.7243 4.58587C14.706 4.58389 14.6875 4.58554 14.6698 4.59072C14.6521 4.5959 14.6356 4.60452 14.6213 4.61607C14.607 4.62763 14.595 4.64189 14.5862 4.65806C14.5774 4.67423 14.5718 4.69198 14.5698 4.7103L14.541 4.97708L14.2392 4.94446C14.218 4.94217 14.1966 4.94407 14.1762 4.95006C14.1558 4.95605 14.1367 4.966 14.1201 4.97935C14.0866 5.0063 14.0652 5.04546 14.0606 5.0882C14.056 5.13094 14.0686 5.17377 14.0955 5.20725C14.1225 5.24074 14.1616 5.26215 14.2044 5.26677L14.5062 5.29934L13.9301 10.632L13.0424 9.7337C12.8284 9.41355 12.6527 9.06942 12.5189 8.70835L11.9588 7.19736C11.8023 6.90548 11.5844 6.65101 11.3201 6.45146C11.0558 6.25192 10.7513 6.11205 10.4277 6.04149C10.4176 6.03958 10.4075 6.04288 10.3975 6.0412C10.2267 5.98901 10.0504 5.95707 9.87213 5.94605L8.1408 5.79862L7.4728 3.74893C7.44076 3.66856 7.39299 3.59541 7.33229 3.53376C7.2716 3.47211 7.1992 3.4232 7.11935 3.3899C7.0395 3.3566 6.9538 3.33958 6.86729 3.33985C6.78077 3.34011 6.69518 3.35765 6.61553 3.39144C6.35777 3.50297 6.22878 3.71335 6.31335 4.16651L2.09613 7.36282L1.91276 7.12082C1.88669 7.08685 1.84824 7.06457 1.80581 7.05886C1.76337 7.05315 1.7204 7.06446 1.68628 7.09033C1.65215 7.11619 1.62965 7.15451 1.62369 7.19691C1.61772 7.23931 1.62877 7.28235 1.65443 7.31663L1.83779 7.55863L1.6239 7.72067C1.59426 7.74313 1.57475 7.77646 1.56967 7.81331C1.5646 7.85016 1.57437 7.88752 1.59683 7.91717L1.62483 7.95417C1.63596 7.96884 1.64987 7.98118 1.66577 7.99048C1.68167 7.99978 1.69924 8.00586 1.71749 8.00836C1.73574 8.01087 1.7543 8.00976 1.77212 8.00509C1.78993 8.00043 1.80666 7.9923 1.82133 7.98117L2.03518 7.81909L2.21855 8.061C2.24452 8.09525 2.28303 8.1178 2.32561 8.12366C2.3682 8.12953 2.41137 8.11823 2.44563 8.09227C2.47989 8.06631 2.50243 8.02779 2.50829 7.98521C2.51416 7.94263 2.50287 7.89945 2.4769 7.8652L2.29353 7.62329L6.39815 4.51243L6.7447 5.66543L7.04804 6.38248C7.11664 6.56623 7.23755 6.72586 7.39585 6.84166C7.55415 6.95747 7.74291 7.02437 7.9388 7.03411L8.84333 7.11111L7.9034 9.61143C7.78803 9.95497 7.7985 10.3283 7.93293 10.6649C8.06737 11.0014 8.31703 11.2792 8.63734 11.4487L10.5383 11.9174L9.20301 13.5035L6.17278 13.6598C6.04226 13.6665 5.91976 13.7248 5.83223 13.8219C5.7447 13.919 5.6993 14.0468 5.70603 14.1773C5.70683 14.2432 5.7211 14.3083 5.74795 14.3685C5.77481 14.4286 5.81369 14.4827 5.86221 14.5273C5.91072 14.5719 5.96785 14.6061 6.03007 14.6278C6.09229 14.6495 6.1583 14.6583 6.22403 14.6536L8.89423 14.5159L6.10516 16.2864C6.05052 16.3211 6.00324 16.3662 5.96603 16.4191C5.92882 16.4721 5.90241 16.5318 5.8883 16.595C5.8742 16.6581 5.87267 16.7235 5.88382 16.7872C5.89496 16.851 5.91856 16.9119 5.95326 16.9665C5.98636 17.0235 6.03076 17.0731 6.08373 17.1123C6.1367 17.1515 6.19713 17.1795 6.26131 17.1945C6.32548 17.2094 6.39204 17.2112 6.4569 17.1995C6.52175 17.1878 6.58353 17.163 6.63844 17.1265L10.9152 14.4117L16.1432 14.1421C16.5389 14.1192 16.9096 13.9413 17.1751 13.647C17.4406 13.3526 17.5794 12.9655 17.5615 12.5696C17.5523 12.4383 17.4918 12.3158 17.3932 12.2287ZM10.169 10.2365L10.9251 7.90347L11.4283 9.29413C11.5616 9.66248 11.7384 10.0136 11.9548 10.3402L13.2933 11.7234L11.295 12.9919L12.1084 11.7645C12.1549 11.6842 12.1845 11.5953 12.1951 11.5032C12.2058 11.411 12.1974 11.3177 12.1704 11.2289C12.1434 11.1402 12.0985 11.058 12.0383 10.9874C11.9782 10.9167 11.9042 10.8593 11.8209 10.8185L10.169 10.2365Z" fill="#292D32"/>
<path d="M10.7324 5.35859C10.9855 5.38474 11.2406 5.33525 11.4656 5.21639C11.6906 5.09752 11.8752 4.91461 11.9962 4.6908C12.1172 4.46698 12.1692 4.2123 12.1454 3.95897C12.1217 3.70564 12.0234 3.46503 11.8629 3.26758C11.7025 3.07012 11.487 2.92469 11.2439 2.84967C11.0008 2.77465 10.7409 2.77341 10.497 2.84611C10.2532 2.91881 10.0364 3.06218 9.87404 3.25809C9.71169 3.45401 9.61109 3.69366 9.58494 3.94676C9.56757 4.1148 9.58347 4.28462 9.63174 4.44652C9.68 4.60842 9.75968 4.75922 9.86623 4.89032C9.97278 5.02143 10.1041 5.13026 10.2527 5.2106C10.4013 5.29095 10.5643 5.34123 10.7324 5.35859Z" fill="#292D32"/>
</svg>
