<svg width="20" height="20" viewBox="0 0 20 20" fill="none" xmlns="http://www.w3.org/2000/svg">
<path d="M17.67 8.40992L14.67 4.91992C14.5389 4.76365 14.3751 4.63793 14.1903 4.55157C14.0055 4.4652 13.804 4.42027 13.6 4.41992H2V5.61992H6.4V8.41992H2V9.61992H16.8V11.6199C16.8 11.726 16.7579 11.8277 16.6828 11.9028C16.6078 11.9778 16.5061 12.0199 16.4 12.0199H2V13.2199H16.4C16.8243 13.2199 17.2313 13.0514 17.5314 12.7513C17.8314 12.4512 18 12.0443 18 11.6199V9.31992C17.9991 8.98745 17.8824 8.66567 17.67 8.40992ZM10.4 8.40992H7.6V5.61992H10.4V8.40992ZM11.6 8.40992V5.61992H13.6C13.6286 5.62021 13.6567 5.6266 13.6826 5.63868C13.7085 5.65075 13.7314 5.66822 13.75 5.68992L16.1 8.41992L11.6 8.40992Z" fill="black"/>
<path d="M17.4 13.98H2.6C2.26863 13.98 2 14.2486 2 14.58C2 14.9114 2.26863 15.18 2.6 15.18H17.4C17.7314 15.18 18 14.9114 18 14.58C18 14.2486 17.7314 13.98 17.4 13.98Z" fill="black"/>
</svg>
