<svg width="20" height="20" viewBox="0 0 20 20" fill="none" xmlns="http://www.w3.org/2000/svg">
<path d="M17.3568 5.2718C17.5512 5.2341 17.7227 5.12084 17.8337 4.95687C17.9446 4.7929 17.9861 4.5916 17.9488 4.39714C17.9116 4.20267 17.7987 4.03091 17.635 3.91954C17.4713 3.80817 17.2701 3.76628 17.0756 3.80305L2.57557 6.80305C2.38119 6.84075 2.2097 6.95401 2.09872 7.11798C1.98774 7.28196 1.94632 7.48325 1.98356 7.67772C2.0208 7.87218 2.13365 8.04394 2.29736 8.15531C2.46106 8.26668 2.66226 8.30858 2.85682 8.2718L17.3568 5.2718Z" fill="#292D32"/>
<path d="M10.2269 6.57812H9.73633V9.64962H10.2269V6.57812Z" fill="#292D32"/>
<path d="M11.2363 4.00049C11.7886 4.00049 12.2363 3.55277 12.2363 3.00049C12.2363 2.4482 11.7886 2.00049 11.2363 2.00049C10.684 2.00049 10.2363 2.4482 10.2363 3.00049C10.2363 3.55277 10.684 4.00049 11.2363 4.00049Z" fill="#292D32"/>
<path d="M8.23633 4.65186C8.78861 4.65186 9.23633 4.20414 9.23633 3.65186C9.23633 3.09957 8.78861 2.65186 8.23633 2.65186C7.68404 2.65186 7.23633 3.09957 7.23633 3.65186C7.23633 4.20414 7.68404 4.65186 8.23633 4.65186Z" fill="#292D32"/>
<path d="M15.326 7.75608C15.0781 7.70381 14.8203 7.72621 14.5851 7.82047C14.35 7.91473 14.148 8.07661 14.0049 8.28563C13.8617 8.49465 13.7838 8.74143 13.7808 8.99477C13.7779 9.2481 13.8502 9.4966 13.9885 9.70885C14.1269 9.92111 14.325 10.0876 14.558 10.1872C14.7909 10.2868 15.0482 10.3152 15.2972 10.2686C15.5462 10.222 15.7758 10.1026 15.957 9.92557C16.1382 9.74849 16.2628 9.52166 16.3151 9.27376C16.3852 8.94134 16.3203 8.5947 16.1349 8.31009C15.9494 8.02547 15.6584 7.82619 15.326 7.75608Z" fill="#292D32"/>
<path d="M6.89266 14.2627C6.72114 14.3345 6.56737 14.443 6.44211 14.5804C6.31684 14.7178 6.22309 14.881 6.16741 15.0584L5.60179 16.8947C5.53615 17.1109 5.55883 17.3442 5.66488 17.5437C5.77092 17.7432 5.95168 17.8925 6.16759 17.959C6.38349 18.0255 6.61694 18.0037 6.81684 17.8985C7.01673 17.7932 7.16677 17.6131 7.23412 17.3974L7.73681 15.7652L10.0028 14.9515C9.78692 14.9146 9.54424 14.8642 9.26143 14.7991C8.92032 14.7204 7.54453 14.4098 6.89266 14.2627Z" fill="#292D32"/>
<path d="M13.3368 10.288C13.2633 10.2411 13.183 10.2061 13.0986 10.1842L13.0955 10.1837L12.7998 10.1408L10.9043 9.86619L10.4221 8.26863C10.3874 8.16399 10.3322 8.06734 10.2596 7.98436C10.1871 7.90137 10.0986 7.83373 9.99955 7.7854C9.90047 7.73707 9.79273 7.70903 9.68266 7.70293C9.57259 7.69683 9.46241 7.71278 9.35859 7.74986C8.98731 7.88511 8.7893 8.1635 8.93386 8.88906L9.47048 10.5269C9.53192 10.7284 9.64262 10.9115 9.79258 11.0595C9.94254 11.2075 10.127 11.3158 10.3294 11.3746L9.06608 12.5453L6.78124 12.0635C6.58666 12.0225 6.38521 12.0274 6.19284 12.0777C6.00046 12.128 5.82243 12.2224 5.67283 12.3534L4.22759 13.6196C4.1424 13.6933 4.07261 13.7831 4.02225 13.8838C3.9719 13.9845 3.94196 14.0942 3.93417 14.2066C3.92639 14.3189 3.9409 14.4317 3.97687 14.5385C4.01285 14.6452 4.06958 14.7437 4.1438 14.8284C4.21802 14.9131 4.30826 14.9823 4.40933 15.032C4.51039 15.0817 4.62029 15.1109 4.7327 15.118C4.8451 15.125 4.95778 15.1098 5.06427 15.0731C5.17075 15.0364 5.26892 14.979 5.35314 14.9043L6.63774 13.7787C6.63774 13.7787 9.90974 14.5129 9.97474 14.5251C10.0038 14.5305 10.2864 14.5768 10.3074 14.5795C10.4414 14.5987 10.5766 14.6081 10.712 14.6078L10.7486 14.6062C10.7942 14.6046 10.8383 14.6015 10.8802 14.5964L10.923 14.5904C10.9628 14.5843 11.0014 14.5765 11.0388 14.5669L11.0733 14.5582C11.4139 14.426 11.7226 14.2229 11.9788 13.9624L13.494 12.4671L13.7224 12.2417C13.8564 12.1001 13.9546 11.9286 14.0088 11.7413C14.063 11.5541 14.0716 11.3566 14.0338 11.1653C13.9961 10.9741 13.9131 10.7946 13.7919 10.642C13.6706 10.4894 13.5146 10.368 13.3368 10.288Z" fill="#292D32"/>
</svg>
